<svg width="162" height="64" viewBox="0 0 162 64" fill="none" xmlns="http://www.w3.org/2000/svg">
<path fill-rule="evenodd" clip-rule="evenodd" d="M129.743 2.50925C116.216 3.76637 100.976 4.83883 95.8757 4.89205C90.1505 4.95173 87.2194 5.24363 88.2152 5.65407C89.1595 6.04354 86.4848 6.20401 81.7643 6.04193C76.4222 5.85727 74.653 5.98468 76.5229 6.41931C78.3623 6.84668 76.1157 6.99344 70.072 6.84104C63.1599 6.66686 61.8254 6.77572 64.8307 7.26841C67.7965 7.75384 66.4111 7.85947 59.5893 7.66756C52.9207 7.48048 51.2217 7.60466 53.5416 8.11025C56.0131 8.64971 55.2672 8.72954 50.3492 8.45376C44.7095 8.13686 0.805353 11.0374 0.0215675 11.7776C-0.143737 11.934 0.659401 17.6116 1.80605 24.3948C2.95189 31.1779 4.10419 38.7231 4.36545 41.1623C4.62752 43.6016 5.43469 49.7291 6.16042 54.7794L7.47963 63.9623L17.2052 63.4712C22.5546 63.2019 31.6488 62.6076 37.4143 62.1504C43.1798 61.694 69.306 60.9577 95.4725 60.5159C121.639 60.0732 144.604 59.3934 146.507 59.0055C149.875 58.3193 151.968 57.2896 149.995 57.2896C149.455 57.2896 149.938 56.4324 151.068 55.385L153.124 53.4795L148.893 52.6514C146.565 52.1958 143.533 51.9982 142.155 52.2119C140.352 52.4917 139.511 52.2401 139.156 51.3169C138.728 50.2017 139.602 50.0323 145.778 50.0323H152.891L153.412 43.8628C153.699 40.4696 153.934 35.7822 153.934 33.4462C153.934 31.1102 154.196 28.5338 154.517 27.7218C155 26.4962 155.189 26.6566 155.631 28.6637C155.969 30.2046 156.226 28.4484 156.338 23.8255C156.434 19.834 156.788 14.5725 157.125 12.1332C157.63 8.48279 157.758 9.46898 157.852 17.7108C157.915 23.2175 158.096 27.5719 158.257 27.3872C158.416 27.2017 158.779 21.4765 159.062 14.6628L159.575 2.2746L156.15 2.7439C154.266 3.00274 148.733 3.38496 143.854 3.59381L134.984 3.97441L145.87 2.87856C151.858 2.2754 157.621 1.75288 158.679 1.71659L160.603 1.65047L160.105 11.5284C158.962 34.2147 158.709 47.1762 159.433 46.0005C160.081 44.949 162.007 13.0258 162 3.46479L161.998 0.0377426L158.167 0.130474C156.06 0.181275 143.27 1.25132 129.743 2.50925ZM44.4853 9.43672C43.9394 9.65767 42.8508 9.67137 42.0662 9.46656C41.2816 9.26174 41.7283 9.08112 43.0588 9.06499C44.3893 9.04886 45.0312 9.21578 44.4853 9.43672ZM157.317 30.2764C157.333 31.6069 157.513 32.0536 157.718 31.269C157.923 30.4844 157.909 29.3958 157.688 28.8499C157.467 28.304 157.3 28.9459 157.317 30.2764ZM155.022 37.9369C155.022 41.7066 155.161 43.2484 155.331 41.3639C155.501 39.4786 155.501 36.3943 155.331 34.5098C155.161 32.6245 155.022 34.1671 155.022 37.9369ZM154.061 47.6132C154.061 48.722 154.244 49.176 154.468 48.6212C154.692 48.0672 154.692 47.16 154.468 46.6053C154.244 46.0513 154.061 46.5045 154.061 47.6132Z" fill="#EB1400"/>
</svg>
