<svg version="1.1" id="Layer_1" xmlns="http://www.w3.org/2000/svg" xmlns:xlink="http://www.w3.org/1999/xlink" x="0px" y="0px"
	 width="100%" viewBox="0 0 629 348" enable-background="new 0 0 629 348" xml:space="preserve">
<path fill="#FEFEFE" opacity="1.000000" stroke="none" 
	d="
M478.000000,349.000000 
	C318.666718,349.000000 159.833405,349.000000 1.000085,349.000000 
	C1.000057,233.000061 1.000057,117.000130 1.000028,1.000148 
	C210.666550,1.000098 420.333099,1.000098 629.999756,1.000049 
	C629.999817,116.999855 629.999817,232.999710 629.999878,348.999786 
	C579.500000,349.000000 529.000000,349.000000 478.000000,349.000000 
M176.399429,182.502426 
	C177.680847,181.077026 178.852524,179.531616 180.260330,178.244431 
	C198.557312,161.514969 197.181503,132.959152 177.271835,118.182671 
	C167.883789,111.215088 156.967239,108.421860 145.577011,107.402824 
	C129.089249,105.927734 113.328255,107.754684 99.685608,118.451469 
	C98.410866,119.450966 96.363174,119.846390 94.666962,119.865501 
	C82.346367,120.004288 70.023781,119.953323 57.702023,120.007233 
	C51.872066,120.032730 49.065033,121.834267 49.347961,125.561073 
	C49.755947,130.935120 53.920437,130.946503 57.823551,130.983337 
	C65.150139,131.052490 72.477966,130.977997 79.805054,131.011841 
	C86.905075,131.044632 88.019386,132.844650 84.345367,138.758896 
	C83.664551,139.854843 81.838211,140.772003 80.498482,140.832001 
	C75.180107,141.070206 69.843483,141.015778 64.516685,140.912277 
	C60.741070,140.838913 57.613987,141.809433 57.461773,146.095093 
	C57.295216,150.784607 60.679756,151.726059 64.573845,151.706451 
	C69.528778,151.681503 74.483917,151.700424 79.449463,151.700424 
	C79.160065,161.826187 79.160049,161.820160 70.340546,161.837677 
	C68.009804,161.842300 65.676453,161.982193 63.349113,161.908234 
	C59.792168,161.795181 57.299187,163.300598 57.209778,166.909882 
	C57.113224,170.807541 59.699562,172.382370 63.455711,172.333191 
	C68.066444,172.272812 72.678566,172.318787 77.607880,172.318787 
	C77.311699,177.174713 79.309288,181.527588 75.485863,185.506302 
	C74.580238,186.448730 75.697197,189.731277 76.424347,191.741898 
	C77.258904,194.049561 79.270546,196.014313 79.778206,198.344299 
	C83.788162,216.748489 93.515915,230.317444 111.871468,236.473572 
	C129.032471,242.229050 146.564713,242.693161 164.049530,238.327698 
	C174.463470,235.727600 183.549271,230.640015 188.938522,220.648071 
	C197.290863,205.162399 191.957336,188.210342 176.399429,182.502426 
M554.340698,154.025299 
	C542.795227,149.587067 531.336914,150.194946 519.044922,155.481049 
	C520.131958,150.495941 521.056763,146.516403 521.859253,142.512360 
	C523.001892,136.810944 524.594971,131.131821 525.024780,125.370735 
	C525.742554,115.752647 522.528198,110.718781 515.047729,107.879410 
	C507.723267,105.099258 499.183197,107.478592 494.074524,114.233765 
	C491.491547,117.649193 488.993774,121.389198 487.569427,125.379387 
	C476.620209,156.053268 474.797607,186.768738 487.760315,217.463898 
	C491.525879,226.380615 497.704437,232.665802 506.543762,236.451736 
	C515.939575,240.475998 525.825073,241.401306 535.897766,241.095505 
	C557.072388,240.452667 573.926697,226.311111 578.316040,204.831512 
	C582.939270,182.207779 573.494202,161.879944 554.340698,154.025299 
M466.981995,204.427216 
	C467.177490,201.937332 467.478516,199.450531 467.551788,196.957062 
	C468.136414,177.069214 458.741730,161.277649 440.781555,155.083267 
	C432.516388,152.232666 423.192993,151.348267 414.379395,151.486237 
	C404.697144,151.637772 395.311981,154.700714 388.066467,161.942825 
	C382.873749,167.133072 381.550568,176.094208 384.960693,181.796707 
	C387.665955,186.320511 394.249207,188.150833 401.622925,186.308990 
	C403.708527,185.788040 405.674042,184.559357 407.766846,184.337936 
	C413.470978,183.734421 419.285828,182.773010 424.918762,183.335541 
	C429.623566,183.805420 433.202850,187.085983 433.998444,192.903885 
	C431.488525,192.359543 429.434937,191.785339 427.342072,191.482040 
	C416.964966,189.978149 406.743286,190.116928 397.096832,194.936920 
	C388.734283,199.115402 383.350647,205.347748 383.520264,215.255875 
	C383.697693,225.621231 388.445343,233.187759 397.937408,237.253494 
	C410.911163,242.810532 424.242371,242.684326 437.370361,237.889328 
	C440.820282,236.629257 443.079742,236.389053 446.263947,238.599930 
	C452.066467,242.628799 460.485138,241.942871 464.881134,237.863251 
	C469.504456,233.572678 471.190430,226.429672 467.418518,221.022354 
	C464.412659,216.713135 464.492310,213.053680 466.152893,208.714157 
	C466.563354,207.641556 466.625488,206.435669 466.981995,204.427216 
M283.363434,196.367813 
	C283.399628,183.312408 279.771790,171.657181 269.758545,162.755539 
	C254.993118,149.629242 227.081207,146.897125 210.223251,157.285492 
	C206.198822,159.765472 202.199005,163.656967 200.244263,167.856430 
	C195.194855,178.704269 201.560760,187.476639 213.435898,186.843582 
	C216.509735,186.679718 219.488510,185.157730 222.576065,184.732925 
	C228.243118,183.953186 233.985855,182.888123 239.646179,183.130386 
	C245.283142,183.371628 248.507919,187.141907 249.584091,192.813614 
	C247.402161,192.369263 245.348450,191.860168 243.265564,191.542160 
	C232.719269,189.931946 222.355225,190.122238 212.570129,195.069626 
	C204.193024,199.305115 199.033142,205.649658 199.316849,215.542816 
	C199.614136,225.909775 204.449341,233.381439 213.934021,237.388077 
	C226.403580,242.655609 239.309891,242.717911 251.934723,238.274200 
	C256.261932,236.751083 259.223969,236.524185 263.128326,239.188156 
	C268.278229,242.701981 276.341980,241.714920 280.417786,238.042709 
	C284.796295,234.097748 287.181000,227.297058 283.839325,222.708405 
	C279.682404,217.000229 281.091919,211.852905 282.330811,206.149765 
	C282.962738,203.240570 283.031342,200.209000 283.363434,196.367813 
M302.969696,151.211044 
	C297.737213,154.438065 295.125031,159.575439 294.374115,165.247375 
	C291.579437,186.356750 291.760162,207.445511 297.308350,228.147049 
	C299.854828,237.648621 306.181519,241.703613 315.430817,241.059875 
	C322.964081,240.535568 328.234436,235.392410 329.677032,226.191574 
	C330.574524,220.467331 330.737335,214.599533 330.864258,208.788177 
	C331.251465,191.060074 341.367706,183.516724 358.254211,188.536667 
	C365.464355,190.680084 372.270569,188.710403 376.168732,183.352356 
	C380.482788,177.422638 380.530334,170.040771 375.909454,163.856995 
	C369.765961,155.635712 361.471313,151.185211 351.142914,151.106125 
	C342.386627,151.039078 334.087402,153.028091 326.790222,158.063721 
	C321.121613,149.353882 314.006592,147.228455 302.969696,151.211044 
M202.370651,109.569923 
	C205.693115,109.493095 209.174591,108.731995 212.309921,109.460533 
	C224.442856,112.279778 235.009995,108.024582 241.286072,97.245178 
	C247.266541,86.973503 245.977203,75.002037 237.598953,66.441231 
	C234.240707,63.009785 230.352402,60.080318 226.591583,57.064217 
	C222.651688,53.904484 219.599747,50.452801 217.784393,45.401428 
	C209.182785,21.466509 180.856522,11.542153 158.903702,24.608685 
	C155.060120,26.896427 151.536285,27.541702 147.109039,26.623451 
	C133.766327,23.856062 122.543282,27.707417 114.966949,39.303196 
	C111.875275,44.035095 108.302238,47.130341 103.054886,49.184505 
	C95.522110,52.133327 91.087059,61.093941 92.483147,68.831001 
	C93.788948,76.067688 100.749825,82.370834 108.664673,82.947937 
	C112.960617,83.261169 117.357086,83.183990 121.629242,82.650482 
	C134.572357,81.034142 147.226974,81.303879 160.309372,83.151138 
	C169.013962,84.380257 177.437256,83.795403 184.640198,89.956963 
	C186.050339,91.163216 188.823227,90.678215 190.904221,91.217690 
	C196.121033,92.570061 200.922379,99.546021 198.578979,102.644295 
	C194.107193,108.556641 189.739151,111.304192 182.919678,107.048203 
	C163.995651,95.237846 143.206070,92.382942 121.440681,94.626595 
	C117.529007,95.029823 114.743690,93.891724 112.503136,90.601814 
	C111.208138,88.700302 109.226822,87.266190 107.554398,85.621719 
	C107.146973,85.882278 106.739555,86.142838 106.332138,86.403404 
	C107.017654,89.401688 108.037956,92.369286 108.316277,95.404900 
	C108.833038,101.041489 111.539268,101.988495 116.903175,101.478920 
	C137.466934,99.525352 158.158691,100.477219 175.724060,112.215317 
	C186.356598,119.320518 193.741150,118.780106 202.370651,109.569923 
M548.229553,262.639252 
	C551.347778,258.756866 554.466064,254.874481 557.584290,250.992081 
	C557.274414,250.673920 556.964539,250.355759 556.654724,250.037582 
	C507.939636,277.883209 458.755157,278.162720 408.061005,252.141510 
	C415.729401,262.192261 424.135803,269.438660 434.525238,274.290131 
	C461.658966,286.960449 489.550323,287.200928 517.846069,279.020935 
	C529.046509,275.782990 529.937439,275.539032 535.046936,286.030701 
	C537.887878,291.864197 538.940796,298.593140 540.572815,304.976532 
	C541.099670,307.037140 540.789612,309.296814 541.058533,311.440857 
	C542.295715,321.303406 549.492554,326.708221 559.272217,325.191956 
	C568.432678,323.771637 574.619995,316.776611 574.653870,306.544098 
	C574.710632,289.428467 566.179749,277.263824 551.570190,269.020264 
	C549.565979,267.889404 547.439758,266.974854 544.723816,265.643372 
	C545.983154,264.591766 546.860718,263.858948 548.229553,262.639252 
M255.123108,263.430115 
	C253.745209,256.671997 248.457962,254.594177 238.017166,257.007568 
	C238.017166,263.651398 237.937592,270.417084 238.114059,277.176056 
	C238.137115,278.058533 239.476013,278.906677 240.205429,279.770721 
	C241.038300,278.849579 242.371506,278.034363 242.593842,276.984009 
	C242.986969,275.126740 242.704010,273.126343 242.704010,271.328461 
	C247.667969,269.845428 247.961197,273.661621 249.200394,276.095001 
	C250.550934,278.747040 251.841507,281.056885 255.634338,278.926758 
	C254.126633,275.872894 252.688873,272.960663 251.654404,270.865356 
	C253.038574,268.141693 254.053604,266.144409 255.123108,263.430115 
M30.640196,151.786667 
	C27.377745,152.622391 26.064215,155.309479 27.241257,157.825562 
	C28.112720,159.688446 30.898149,161.529190 33.010780,161.764404 
	C38.092957,162.330231 43.280811,161.944504 48.426037,161.947083 
	C51.934513,161.948837 54.233231,160.496155 54.264362,156.726669 
	C54.296268,152.863113 51.811798,151.551788 48.397514,151.545502 
	C42.757320,151.535141 37.116959,151.620483 30.640196,151.786667 
M225.992752,269.466400 
	C225.993134,265.802551 225.876831,262.133911 226.028458,258.476318 
	C226.165466,255.171463 224.899948,254.267578 221.843262,255.516052 
	C221.691299,257.837128 221.543579,260.093201 221.388992,262.454468 
	C219.732529,262.279999 218.435120,261.979156 217.154266,262.038086 
	C212.643845,262.245697 210.350891,265.820709 210.655426,271.996429 
	C210.904266,277.042328 213.626297,280.122864 217.745956,279.899902 
	C220.292358,279.762085 222.830338,279.468231 225.993073,279.189758 
	C225.993073,276.326843 225.993073,273.386627 225.992752,269.466400 
M307.899994,266.694183 
	C310.827820,264.032837 312.211639,265.117706 313.191956,268.525513 
	C310.652130,268.970764 308.278107,268.740509 306.876068,269.798431 
	C305.170898,271.085083 303.109741,273.637787 303.367157,275.309479 
	C303.636383,277.057770 306.289642,279.329712 308.234253,279.722656 
	C311.231598,280.328430 314.513092,279.528046 317.641510,279.326233 
	C317.641510,275.738342 317.539978,272.422516 317.668640,269.115631 
	C317.811188,265.453156 316.435150,262.818604 312.736603,262.166321 
	C308.780823,261.468689 305.172638,262.082550 303.146576,267.318512 
	C304.903595,267.236633 306.090210,267.181335 307.899994,266.694183 
M265.457397,276.230316 
	C264.482788,275.242340 263.508179,274.254395 262.533569,273.266418 
	C262.738068,272.863495 262.942566,272.460541 263.147064,272.057617 
	C266.504761,272.057617 269.862457,272.057617 273.320801,272.057617 
	C273.373840,266.907288 272.476074,262.973938 267.239380,262.104309 
	C262.933533,261.389282 259.798523,263.204712 258.289185,267.418060 
	C256.677216,271.917755 258.193359,276.804657 261.762634,278.816223 
	C265.706482,281.038879 269.578522,280.188843 273.325592,275.378754 
	C270.335876,275.786011 268.320679,276.060516 265.457397,276.230316 
M382.757904,271.599457 
	C382.675293,262.126007 382.598175,262.077606 367.830994,262.667114 
	C367.830994,267.540314 367.643036,272.476349 367.985962,277.375244 
	C368.056488,278.382599 370.110077,279.251160 371.249603,280.183685 
	C372.425751,277.008759 372.266449,274.858002 372.465851,272.741058 
	C372.717743,270.067108 370.891724,265.686005 375.518555,265.764618 
	C379.764526,265.836731 377.594360,270.105743 378.224945,272.548004 
	C378.849182,274.965546 379.802856,279.470642 380.257050,279.426300 
	C385.267303,278.936798 381.683594,274.837952 382.757904,271.599457 
M48.269264,182.950500 
	C49.426502,182.885086 50.971016,183.266479 51.664196,182.665665 
	C53.356533,181.198853 55.794117,179.277969 55.794968,177.538849 
	C55.795834,175.759338 53.493206,172.787888 51.774685,172.441254 
	C47.961464,171.672089 43.775829,171.692322 39.960510,172.466888 
	C38.230389,172.818115 35.892654,175.729553 35.891869,177.480499 
	C35.891083,179.223175 38.151726,181.703735 40.008808,182.515549 
	C42.120483,183.438660 44.883770,182.871170 48.269264,182.950500 
M331.356232,279.213928 
	C334.515289,280.511932 336.052521,279.696991 335.879669,276.042389 
	C335.715088,272.562622 336.052460,269.050354 335.740112,265.591095 
	C335.633209,264.406586 334.227692,263.339294 333.415466,262.218445 
	C332.699677,263.266876 331.542969,264.245483 331.363464,265.378845 
	C331.029846,267.485291 331.622314,269.764008 331.150299,271.814728 
	C330.784332,273.404633 329.384521,274.756561 328.444305,276.214294 
	C327.465942,274.840088 325.995544,273.584106 325.630005,272.062622 
	C325.139404,270.020599 325.416077,267.769257 325.519440,265.615234 
	C325.684387,262.177124 324.085632,261.619598 320.918091,262.837830 
	C320.918091,266.121521 320.803986,269.423462 320.942169,272.714844 
	C321.217468,279.271484 323.826996,280.992004 331.356232,279.213928 
M95.349197,269.983276 
	C95.846535,269.983398 96.399849,270.125824 96.830475,269.956421 
	C98.023880,269.486938 99.166161,268.887573 100.328644,268.339508 
	C99.135437,267.627258 98.016678,266.560364 96.730644,266.290436 
	C95.032913,265.934143 93.204018,266.202789 91.230400,266.202789 
	C91.230400,263.942139 91.230400,262.205750 91.230400,259.975128 
	C94.036102,259.975128 96.655067,260.114227 99.243889,259.895844 
	C100.092857,259.824249 100.863602,258.824951 101.670113,258.249847 
	C100.918411,257.580048 100.192421,256.368286 99.410721,256.331207 
	C95.315498,256.136993 91.206161,256.240479 86.549644,256.240479 
	C86.549644,262.607819 86.549644,268.532410 86.549644,274.457031 
	C86.549644,276.076263 86.549644,277.695526 86.549644,279.183868 
	C91.558952,280.891510 90.949036,277.760101 91.046837,275.107727 
	C91.133194,272.765778 89.785408,269.315308 95.349197,269.983276 
M364.391205,269.058044 
	C364.533600,265.220398 363.035461,262.578979 358.974365,262.095398 
	C355.114807,261.635834 351.928894,262.594788 350.389984,266.273407 
	C353.084930,270.410339 358.066132,260.728699 359.945526,268.531250 
	C357.588531,268.983551 355.062958,268.795776 353.538849,269.940857 
	C351.855865,271.205292 349.911652,273.934784 350.250580,275.578918 
	C350.604828,277.297302 353.376373,279.303467 355.386658,279.705231 
	C358.216522,280.270752 361.318604,279.474121 364.390991,279.253754 
	C364.390991,276.150299 364.390991,273.038757 364.391205,269.058044 
M117.353363,274.418640 
	C117.325874,272.091553 117.384308,269.759583 117.251236,267.438538 
	C117.038811,263.733429 114.576561,262.208740 111.273285,262.058960 
	C107.748825,261.899170 104.367241,262.365448 103.683823,266.329437 
	C106.393356,270.325470 111.053818,260.608429 113.075348,268.617828 
	C110.908600,268.945618 108.508484,268.636230 107.145203,269.680450 
	C105.327728,271.072632 103.214073,273.569641 103.305618,275.493225 
	C103.379578,277.047394 106.352913,279.310394 108.356339,279.722900 
	C111.196289,280.307617 114.326889,279.480774 117.609917,279.236603 
	C117.533043,277.906372 117.458672,276.619476 117.353363,274.418640 
M161.901016,270.648834 
	C164.910553,270.269745 167.920090,269.890656 171.412750,269.450714 
	C169.721405,263.636078 164.569199,267.809265 162.062500,265.582092 
	C162.062500,263.817749 162.062500,262.075531 162.062500,259.997314 
	C164.933044,259.997314 167.579651,260.147369 170.189621,259.904266 
	C170.955063,259.832977 171.616516,258.645355 172.325623,257.969391 
	C171.667892,257.383362 171.027771,256.314758 170.349533,256.289978 
	C166.090500,256.134491 161.822983,256.211304 157.064377,256.211304 
	C157.064377,263.628693 156.984451,270.405609 157.161591,277.175812 
	C157.184753,278.061096 158.527771,278.911865 159.259460,279.778625 
	C160.112061,278.874786 161.455826,278.088348 161.706360,277.040527 
	C162.120209,275.309662 161.828491,273.410065 161.901016,270.648834 
M192.375122,268.205933 
	C191.739426,272.517853 191.954773,276.590027 196.318832,278.995514 
	C200.385620,281.237183 205.370331,279.679565 207.399414,275.727631 
	C209.691055,271.264313 208.207047,265.117889 204.321869,262.981049 
	C199.793472,260.490448 195.429901,262.153687 192.375122,268.205933 
M129.964813,279.735199 
	C131.551407,277.916748 134.187729,276.195496 134.368225,274.246796 
	C134.495850,272.868774 131.335327,271.138092 129.560043,269.664368 
	C129.092255,269.276093 128.242874,269.377930 127.701187,269.041443 
	C126.794418,268.478180 125.945770,267.789917 125.209633,267.022766 
	C125.116356,266.925598 125.809975,265.630737 126.204193,265.594238 
	C127.243126,265.497986 128.365799,265.639618 129.367477,265.960297 
	C130.941635,266.464233 132.443878,267.192749 135.082291,268.283112 
	C132.253876,261.960876 126.463287,260.342346 122.711067,263.443024 
	C119.843285,265.812836 120.101097,269.348663 123.374680,271.196075 
	C124.508095,271.835693 125.896835,272.012085 127.063248,272.607239 
	C128.144897,273.159088 129.129807,273.938385 130.032761,274.755219 
	C130.146729,274.858307 129.480103,276.281738 129.215637,276.268738 
	C127.859810,276.202179 126.475288,275.997986 125.181160,275.588135 
	C123.723160,275.126434 122.350769,274.394440 120.941139,273.779999 
	C121.730881,279.256409 124.970566,280.366913 129.964813,279.735199 
M284.793549,269.694153 
	C283.118378,268.988678 281.443237,268.283173 279.768066,267.577698 
	C279.956665,266.891754 280.145264,266.205811 280.333862,265.519867 
	C283.276245,266.140900 286.218628,266.761932 289.863129,267.531158 
	C287.986084,262.058167 284.389496,261.277283 280.738586,262.307281 
	C278.777710,262.860504 276.242035,265.095184 275.903107,266.929199 
	C275.121216,271.160339 279.154297,271.496948 282.031555,272.624023 
	C283.149048,273.061768 284.115906,273.945282 285.030090,274.761566 
	C285.141785,274.861328 284.486542,276.286041 284.207001,276.279144 
	C282.830322,276.245056 281.415039,276.084290 280.100067,275.683746 
	C278.574646,275.219086 277.139313,274.458435 274.730347,273.425629 
	C276.583374,279.323090 280.006836,280.633240 283.798279,279.711060 
	C285.985931,279.178925 288.494171,277.163544 289.359253,275.166504 
	C289.797882,274.153900 286.913818,271.701996 284.793549,269.694153 
M187.891861,277.355652 
	C191.726990,270.342651 189.693192,263.109863 183.508530,262.126556 
	C179.814209,261.539154 176.488953,262.379303 174.773209,266.134979 
	C172.915604,270.201202 172.846741,274.437744 176.132614,277.666504 
	C179.505478,280.980804 183.550797,280.834290 187.891861,277.355652 
M392.125153,275.690918 
	C391.832733,271.546875 389.735992,267.036102 394.808624,263.875885 
	C392.968781,261.847351 391.222748,259.922272 389.476746,257.997192 
	C387.712372,259.895935 385.947998,261.794647 385.073120,262.736145 
	C385.927216,266.153564 386.645782,268.436981 387.039917,270.775085 
	C387.420532,273.033051 386.972321,275.563293 387.842987,277.556946 
	C388.374878,278.774841 390.649292,279.402222 392.263519,279.887726 
	C392.855988,280.065887 393.800995,279.071930 394.585175,278.612671 
	C394.007904,277.773560 393.430634,276.934418 392.125153,275.690918 
M298.036041,260.357117 
	C297.250336,259.586884 296.566254,258.599548 295.626038,258.159424 
	C295.278015,257.996552 294.153809,259.000977 293.689331,259.681671 
	C292.763031,261.039093 292.048279,262.540833 291.246155,263.982971 
	C291.678040,263.920349 292.109924,263.857727 292.541840,263.795105 
	C292.905487,267.263092 293.362701,270.724457 293.608704,274.200775 
	C293.902740,278.355743 296.117126,280.764771 299.283661,279.778656 
	C299.941711,279.573700 300.762268,277.289032 300.391815,276.787720 
	C296.912903,272.080200 297.001434,268.083832 301.147888,263.429565 
	C300.123627,262.663757 299.114594,261.909302 298.036041,260.357117 
M139.849533,258.070221 
	C138.619019,260.106140 137.388489,262.142029 136.155701,264.181702 
	C138.439651,266.189636 138.546387,266.187408 138.715698,274.325500 
	C138.791992,277.993256 140.149506,280.060516 143.966782,279.896790 
	C144.658051,279.867157 145.640518,279.318695 145.903275,278.742706 
	C146.146942,278.208588 145.822525,277.135010 145.379028,276.612152 
	C141.914154,272.527100 142.114594,267.718414 146.106842,263.562012 
	C144.299789,261.725677 142.482559,259.878998 139.849533,258.070221 
M33.838505,137.980042 
	C37.260475,138.204437 40.723183,138.811859 44.083279,138.454498 
	C45.332840,138.321609 47.209301,135.928635 47.207157,134.568802 
	C47.205170,133.312485 45.282898,131.539215 43.820286,130.946762 
	C42.259026,130.314377 40.245461,130.788574 38.429424,130.797012 
	C32.395306,130.825089 31.937344,131.415848 33.838505,137.980042 
M343.874237,269.018311 
	C344.843506,268.058777 345.849426,267.132935 346.771667,266.130188 
	C347.682526,265.139832 348.508820,264.071716 349.883392,262.425415 
	C345.481995,262.425415 342.636414,262.425415 339.257355,262.425415 
	C339.257355,267.570496 339.147186,272.356873 339.354034,277.129547 
	C339.393494,278.040100 340.684540,278.896454 341.398163,279.777832 
	C342.206512,278.821503 343.543579,277.950378 343.714233,276.891296 
	C344.080811,274.616547 343.846100,272.244873 343.874237,269.018311 
z"/>
<path fill="#141414" opacity="1.000000" stroke="none" 
	d="
M176.710571,182.664673 
	C191.957336,188.210342 197.290863,205.162399 188.938522,220.648071 
	C183.549271,230.640015 174.463470,235.727600 164.049530,238.327698 
	C146.564713,242.693161 129.032471,242.229050 111.871468,236.473572 
	C93.515915,230.317444 83.788162,216.748489 79.778206,198.344299 
	C79.270546,196.014313 77.258904,194.049561 76.424347,191.741898 
	C75.697197,189.731277 74.580238,186.448730 75.485863,185.506302 
	C79.309288,181.527588 77.311699,177.174713 77.607880,172.318787 
	C72.678566,172.318787 68.066444,172.272812 63.455711,172.333191 
	C59.699562,172.382370 57.113224,170.807541 57.209778,166.909882 
	C57.299187,163.300598 59.792168,161.795181 63.349113,161.908234 
	C65.676453,161.982193 68.009804,161.842300 70.340546,161.837677 
	C79.160049,161.820160 79.160065,161.826187 79.449463,151.700424 
	C74.483917,151.700424 69.528778,151.681503 64.573845,151.706451 
	C60.679756,151.726059 57.295216,150.784607 57.461773,146.095093 
	C57.613987,141.809433 60.741070,140.838913 64.516685,140.912277 
	C69.843483,141.015778 75.180107,141.070206 80.498482,140.832001 
	C81.838211,140.772003 83.664551,139.854843 84.345367,138.758896 
	C88.019386,132.844650 86.905075,131.044632 79.805054,131.011841 
	C72.477966,130.977997 65.150139,131.052490 57.823551,130.983337 
	C53.920437,130.946503 49.755947,130.935120 49.347961,125.561073 
	C49.065033,121.834267 51.872066,120.032730 57.702023,120.007233 
	C70.023781,119.953323 82.346367,120.004288 94.666962,119.865501 
	C96.363174,119.846390 98.410866,119.450966 99.685608,118.451469 
	C113.328255,107.754684 129.089249,105.927734 145.577011,107.402824 
	C156.967239,108.421860 167.883789,111.215088 177.271835,118.182671 
	C197.181503,132.959152 198.557312,161.514969 180.260330,178.244431 
	C178.852524,179.531616 177.680847,181.077026 176.710571,182.664673 
M128.807877,148.900803 
	C123.471092,151.892746 121.622780,156.196213 122.875359,162.713577 
	C123.792900,167.487686 126.990616,170.642517 132.792053,170.817230 
	C137.119217,170.947540 141.862305,170.493149 145.761780,168.790909 
	C153.424576,165.445862 153.789169,155.210953 146.812576,150.586563 
	C141.436600,147.023148 135.531586,147.246719 128.807877,148.900803 
M148.102356,212.676346 
	C153.616043,206.795746 152.563614,200.173325 145.473358,197.034409 
	C139.920090,194.575943 134.155060,194.451065 128.455795,196.519547 
	C123.874992,198.182098 122.459167,201.863449 122.635307,206.450806 
	C122.804359,210.853958 125.111885,213.695877 129.158188,214.872757 
	C135.436768,216.698944 141.639008,216.495163 148.102356,212.676346 
z"/>
<path fill="#141414" opacity="1.000000" stroke="none" 
	d="
M554.709106,154.145752 
	C573.494202,161.879944 582.939270,182.207779 578.316040,204.831512 
	C573.926697,226.311111 557.072388,240.452667 535.897766,241.095505 
	C525.825073,241.401306 515.939575,240.475998 506.543762,236.451736 
	C497.704437,232.665802 491.525879,226.380615 487.760315,217.463898 
	C474.797607,186.768738 476.620209,156.053268 487.569427,125.379387 
	C488.993774,121.389198 491.491547,117.649193 494.074524,114.233765 
	C499.183197,107.478592 507.723267,105.099258 515.047729,107.879410 
	C522.528198,110.718781 525.742554,115.752647 525.024780,125.370735 
	C524.594971,131.131821 523.001892,136.810944 521.859253,142.512360 
	C521.056763,146.516403 520.131958,150.495941 519.044922,155.481049 
	C531.336914,150.194946 542.795227,149.587067 554.709106,154.145752 
M542.477173,189.116409 
	C536.385559,183.216171 530.260071,182.542633 524.848633,187.178101 
	C519.299866,191.931229 518.259644,199.916458 522.461670,205.501587 
	C526.759155,211.213562 533.986023,212.620941 539.655518,208.849960 
	C546.183533,204.507996 547.480164,197.017990 542.477173,189.116409 
z"/>
<path fill="#151515" opacity="1.000000" stroke="none" 
	d="
M466.914886,204.859131 
	C466.625488,206.435669 466.563354,207.641556 466.152893,208.714157 
	C464.492310,213.053680 464.412659,216.713135 467.418518,221.022354 
	C471.190430,226.429672 469.504456,233.572678 464.881134,237.863251 
	C460.485138,241.942871 452.066467,242.628799 446.263947,238.599930 
	C443.079742,236.389053 440.820282,236.629257 437.370361,237.889328 
	C424.242371,242.684326 410.911163,242.810532 397.937408,237.253494 
	C388.445343,233.187759 383.697693,225.621231 383.520264,215.255875 
	C383.350647,205.347748 388.734283,199.115402 397.096832,194.936920 
	C406.743286,190.116928 416.964966,189.978149 427.342072,191.482040 
	C429.434937,191.785339 431.488525,192.359543 433.998444,192.903885 
	C433.202850,187.085983 429.623566,183.805420 424.918762,183.335541 
	C419.285828,182.773010 413.470978,183.734421 407.766846,184.337936 
	C405.674042,184.559357 403.708527,185.788040 401.622925,186.308990 
	C394.249207,188.150833 387.665955,186.320511 384.960693,181.796707 
	C381.550568,176.094208 382.873749,167.133072 388.066467,161.942825 
	C395.311981,154.700714 404.697144,151.637772 414.379395,151.486237 
	C423.192993,151.348267 432.516388,152.232666 440.781555,155.083267 
	C458.741730,161.277649 468.136414,177.069214 467.551788,196.957062 
	C467.478516,199.450531 467.177490,201.937332 466.914886,204.859131 
M428.959045,212.734314 
	C425.183167,209.275558 420.705872,208.995819 416.474396,211.080887 
	C414.718323,211.946182 412.971283,214.762482 412.919891,216.735840 
	C412.824921,220.382126 418.646912,222.742615 423.905518,221.687546 
	C428.869843,220.691513 430.633057,218.040512 428.959045,212.734314 
z"/>
<path fill="#151515" opacity="1.000000" stroke="none" 
	d="
M283.359009,196.800278 
	C283.031342,200.209000 282.962738,203.240570 282.330811,206.149765 
	C281.091919,211.852905 279.682404,217.000229 283.839325,222.708405 
	C287.181000,227.297058 284.796295,234.097748 280.417786,238.042709 
	C276.341980,241.714920 268.278229,242.701981 263.128326,239.188156 
	C259.223969,236.524185 256.261932,236.751083 251.934723,238.274200 
	C239.309891,242.717911 226.403580,242.655609 213.934021,237.388077 
	C204.449341,233.381439 199.614136,225.909775 199.316849,215.542816 
	C199.033142,205.649658 204.193024,199.305115 212.570129,195.069626 
	C222.355225,190.122238 232.719269,189.931946 243.265564,191.542160 
	C245.348450,191.860168 247.402161,192.369263 249.584091,192.813614 
	C248.507919,187.141907 245.283142,183.371628 239.646179,183.130386 
	C233.985855,182.888123 228.243118,183.953186 222.576065,184.732925 
	C219.488510,185.157730 216.509735,186.679718 213.435898,186.843582 
	C201.560760,187.476639 195.194855,178.704269 200.244263,167.856430 
	C202.199005,163.656967 206.198822,159.765472 210.223251,157.285492 
	C227.081207,146.897125 254.993118,149.629242 269.758545,162.755539 
	C279.771790,171.657181 283.399628,183.312408 283.359009,196.800278 
M237.446167,209.977585 
	C231.130798,210.370346 228.130905,212.463089 228.441269,216.259506 
	C228.757065,220.122314 233.725845,222.694214 239.204453,221.739456 
	C240.498764,221.513901 241.862488,221.185394 242.979858,220.535568 
	C247.014862,218.188980 247.052231,213.699112 243.003799,211.390167 
	C241.617737,210.599640 239.870102,210.443069 237.446167,209.977585 
z"/>
<path fill="#151515" opacity="1.000000" stroke="none" 
	d="
M303.315399,151.039764 
	C314.006592,147.228455 321.121613,149.353882 326.790222,158.063721 
	C334.087402,153.028091 342.386627,151.039078 351.142914,151.106125 
	C361.471313,151.185211 369.765961,155.635712 375.909454,163.856995 
	C380.530334,170.040771 380.482788,177.422638 376.168732,183.352356 
	C372.270569,188.710403 365.464355,190.680084 358.254211,188.536667 
	C341.367706,183.516724 331.251465,191.060074 330.864258,208.788177 
	C330.737335,214.599533 330.574524,220.467331 329.677032,226.191574 
	C328.234436,235.392410 322.964081,240.535568 315.430817,241.059875 
	C306.181519,241.703613 299.854828,237.648621 297.308350,228.147049 
	C291.760162,207.445511 291.579437,186.356750 294.374115,165.247375 
	C295.125031,159.575439 297.737213,154.438065 303.315399,151.039764 
z"/>
<path fill="#FE9E2E" opacity="1.000000" stroke="none" 
	d="
M202.046143,109.760841 
	C193.741150,118.780106 186.356598,119.320518 175.724060,112.215317 
	C158.158691,100.477219 137.466934,99.525352 116.903175,101.478920 
	C111.539268,101.988495 108.833038,101.041489 108.316277,95.404900 
	C108.037956,92.369286 107.017654,89.401688 106.332138,86.403404 
	C106.739555,86.142838 107.146973,85.882278 107.554398,85.621719 
	C109.226822,87.266190 111.208138,88.700302 112.503136,90.601814 
	C114.743690,93.891724 117.529007,95.029823 121.440681,94.626595 
	C143.206070,92.382942 163.995651,95.237846 182.919678,107.048203 
	C189.739151,111.304192 194.107193,108.556641 198.578979,102.644295 
	C200.922379,99.546021 196.121033,92.570061 190.904221,91.217690 
	C188.823227,90.678215 186.050339,91.163216 184.640198,89.956963 
	C177.437256,83.795403 169.013962,84.380257 160.309372,83.151138 
	C147.226974,81.303879 134.572357,81.034142 121.629242,82.650482 
	C117.357086,83.183990 112.960617,83.261169 108.664673,82.947937 
	C100.749825,82.370834 93.788948,76.067688 92.483147,68.831001 
	C91.087059,61.093941 95.522110,52.133327 103.054886,49.184505 
	C108.302238,47.130341 111.875275,44.035095 114.966949,39.303196 
	C122.543282,27.707417 133.766327,23.856062 147.109039,26.623451 
	C151.536285,27.541702 155.060120,26.896427 158.903702,24.608685 
	C180.856522,11.542153 209.182785,21.466509 217.784393,45.401428 
	C219.599747,50.452801 222.651688,53.904484 226.591583,57.064217 
	C230.352402,60.080318 234.240707,63.009785 237.598953,66.441231 
	C245.977203,75.002037 247.266541,86.973503 241.286072,97.245178 
	C235.009995,108.024582 224.442856,112.279778 212.309921,109.460533 
	C209.174591,108.731995 205.693115,109.493095 202.046143,109.760841 
M100.903221,60.859428 
	C98.013535,68.717567 101.811775,75.795853 109.844894,75.836342 
	C119.070099,75.882851 128.301758,74.648537 137.695114,73.958504 
	C137.389862,70.178902 137.147507,67.178146 136.988312,65.206940 
	C145.028854,69.007309 152.661133,74.156609 161.046509,76.171265 
	C170.617432,78.470741 176.898300,69.799545 184.559479,64.958694 
	C184.770111,67.852310 184.796158,70.511444 183.884781,72.796730 
	C181.130875,79.702141 181.558960,81.822098 189.004318,83.285233 
	C193.622009,84.192688 198.731506,82.825500 203.582535,82.190895 
	C205.230362,81.975334 206.762756,80.877419 209.370239,79.734650 
	C207.523239,83.273285 205.741608,85.617607 205.097382,88.241219 
	C204.527557,90.561836 204.408829,93.650475 205.505508,95.607231 
	C209.832413,103.327530 220.127716,105.584419 227.722717,100.946838 
	C238.339691,94.463974 240.556702,80.855400 232.676468,70.539223 
	C225.877670,61.638767 221.098343,60.208378 210.942276,64.545403 
	C214.152725,46.902367 207.170547,35.207672 191.139496,28.137381 
	C173.204239,20.227266 162.461807,31.752218 151.030548,42.731720 
	C150.331039,41.302471 149.722427,40.498230 149.535767,39.605736 
	C148.390839,34.131222 144.850906,32.627140 139.627121,32.830307 
	C127.748596,33.292286 117.876701,42.378555 114.979103,55.903152 
	C114.451019,58.367989 113.817795,60.810303 112.900337,64.658943 
	C111.436211,62.018990 110.658928,60.798790 110.056183,59.497734 
	C107.994919,55.048386 106.986916,54.789577 103.334984,57.977573 
	C102.587959,58.629700 101.975975,59.436516 100.903221,60.859428 
z"/>
<path fill="#EB1907" opacity="1.000000" stroke="none" 
	d="
M547.983887,262.882690 
	C546.860718,263.858948 545.983154,264.591766 544.723816,265.643372 
	C547.439758,266.974854 549.565979,267.889404 551.570190,269.020264 
	C566.179749,277.263824 574.710632,289.428467 574.653870,306.544098 
	C574.619995,316.776611 568.432678,323.771637 559.272217,325.191956 
	C549.492554,326.708221 542.295715,321.303406 541.058533,311.440857 
	C540.789612,309.296814 541.099670,307.037140 540.572815,304.976532 
	C538.940796,298.593140 537.887878,291.864197 535.046936,286.030701 
	C529.937439,275.539032 529.046509,275.782990 517.846069,279.020935 
	C489.550323,287.200928 461.658966,286.960449 434.525238,274.290131 
	C424.135803,269.438660 415.729401,262.192261 408.061005,252.141510 
	C458.755157,278.162720 507.939636,277.883209 556.654724,250.037582 
	C556.964539,250.355759 557.274414,250.673920 557.584290,250.992081 
	C554.466064,254.874481 551.347778,258.756866 547.983887,262.882690 
z"/>
<path fill="#313131" opacity="1.000000" stroke="none" 
	d="
M255.095871,263.788635 
	C254.053604,266.144409 253.038574,268.141693 251.654404,270.865356 
	C252.688873,272.960663 254.126633,275.872894 255.634338,278.926758 
	C251.841507,281.056885 250.550934,278.747040 249.200394,276.095001 
	C247.961197,273.661621 247.667969,269.845428 242.704010,271.328461 
	C242.704010,273.126343 242.986969,275.126740 242.593842,276.984009 
	C242.371506,278.034363 241.038300,278.849579 240.205429,279.770721 
	C239.476013,278.906677 238.137115,278.058533 238.114059,277.176056 
	C237.937592,270.417084 238.017166,263.651398 238.017166,257.007568 
	C248.457962,254.594177 253.745209,256.671997 255.095871,263.788635 
M242.793381,266.396698 
	C245.165237,266.136292 247.574326,266.024963 249.868179,265.452148 
	C250.205902,265.367828 250.463531,262.263306 249.959488,261.980682 
	C247.909729,260.831451 245.548874,260.237061 242.666656,259.211853 
	C242.666656,262.181519 242.666656,263.816589 242.793381,266.396698 
z"/>
<path fill="#171717" opacity="1.000000" stroke="none" 
	d="
M31.058432,151.726074 
	C37.116959,151.620483 42.757320,151.535141 48.397514,151.545502 
	C51.811798,151.551788 54.296268,152.863113 54.264362,156.726669 
	C54.233231,160.496155 51.934513,161.948837 48.426037,161.947083 
	C43.280811,161.944504 38.092957,162.330231 33.010780,161.764404 
	C30.898149,161.529190 28.112720,159.688446 27.241257,157.825562 
	C26.064215,155.309479 27.377745,152.622391 31.058432,151.726074 
z"/>
<path fill="#292929" opacity="1.000000" stroke="none" 
	d="
M225.992920,269.956421 
	C225.993073,273.386627 225.993073,276.326843 225.993073,279.189758 
	C222.830338,279.468231 220.292358,279.762085 217.745956,279.899902 
	C213.626297,280.122864 210.904266,277.042328 210.655426,271.996429 
	C210.350891,265.820709 212.643845,262.245697 217.154266,262.038086 
	C218.435120,261.979156 219.732529,262.279999 221.388992,262.454468 
	C221.543579,260.093201 221.691299,257.837128 221.843262,255.516052 
	C224.899948,254.267578 226.165466,255.171463 226.028458,258.476318 
	C225.876831,262.133911 225.993134,265.802551 225.992920,269.956421 
M218.480347,265.399902 
	C214.955032,267.449982 213.389404,272.141754 215.872482,274.703125 
	C216.789429,275.648956 219.971573,275.772308 221.022415,274.918762 
	C222.994370,273.317017 221.547424,267.384705 218.480347,265.399902 
z"/>
<path fill="#373737" opacity="1.000000" stroke="none" 
	d="
M307.588409,266.910095 
	C306.090210,267.181335 304.903595,267.236633 303.146576,267.318512 
	C305.172638,262.082550 308.780823,261.468689 312.736603,262.166321 
	C316.435150,262.818604 317.811188,265.453156 317.668640,269.115631 
	C317.539978,272.422516 317.641510,275.738342 317.641510,279.326233 
	C314.513092,279.528046 311.231598,280.328430 308.234253,279.722656 
	C306.289642,279.329712 303.636383,277.057770 303.367157,275.309479 
	C303.109741,273.637787 305.170898,271.085083 306.876068,269.798431 
	C308.278107,268.740509 310.652130,268.970764 313.191956,268.525513 
	C312.211639,265.117706 310.827820,264.032837 307.588409,266.910095 
z"/>
<path fill="#333333" opacity="1.000000" stroke="none" 
	d="
M265.881409,276.282654 
	C268.320679,276.060516 270.335876,275.786011 273.325592,275.378754 
	C269.578522,280.188843 265.706482,281.038879 261.762634,278.816223 
	C258.193359,276.804657 256.677216,271.917755 258.289185,267.418060 
	C259.798523,263.204712 262.933533,261.389282 267.239380,262.104309 
	C272.476074,262.973938 273.373840,266.907288 273.320801,272.057617 
	C269.862457,272.057617 266.504761,272.057617 263.147064,272.057617 
	C262.942566,272.460541 262.738068,272.863495 262.533569,273.266418 
	C263.508179,274.254395 264.482788,275.242340 265.881409,276.282654 
z"/>
<path fill="#343434" opacity="1.000000" stroke="none" 
	d="
M382.755432,272.053650 
	C381.683594,274.837952 385.267303,278.936798 380.257050,279.426300 
	C379.802856,279.470642 378.849182,274.965546 378.224945,272.548004 
	C377.594360,270.105743 379.764526,265.836731 375.518555,265.764618 
	C370.891724,265.686005 372.717743,270.067108 372.465851,272.741058 
	C372.266449,274.858002 372.425751,277.008759 371.249603,280.183685 
	C370.110077,279.251160 368.056488,278.382599 367.985962,277.375244 
	C367.643036,272.476349 367.830994,267.540314 367.830994,262.667114 
	C382.598175,262.077606 382.675293,262.126007 382.755432,272.053650 
z"/>
<path fill="#1C1C1C" opacity="1.000000" stroke="none" 
	d="
M47.816536,182.951050 
	C44.883770,182.871170 42.120483,183.438660 40.008808,182.515549 
	C38.151726,181.703735 35.891083,179.223175 35.891869,177.480499 
	C35.892654,175.729553 38.230389,172.818115 39.960510,172.466888 
	C43.775829,171.692322 47.961464,171.672089 51.774685,172.441254 
	C53.493206,172.787888 55.795834,175.759338 55.794968,177.538849 
	C55.794117,179.277969 53.356533,181.198853 51.664196,182.665665 
	C50.971016,183.266479 49.426502,182.885086 47.816536,182.951050 
z"/>
<path fill="#373737" opacity="1.000000" stroke="none" 
	d="
M330.896179,279.177521 
	C323.826996,280.992004 321.217468,279.271484 320.942169,272.714844 
	C320.803986,269.423462 320.918091,266.121521 320.918091,262.837830 
	C324.085632,261.619598 325.684387,262.177124 325.519440,265.615234 
	C325.416077,267.769257 325.139404,270.020599 325.630005,272.062622 
	C325.995544,273.584106 327.465942,274.840088 328.444305,276.214294 
	C329.384521,274.756561 330.784332,273.404633 331.150299,271.814728 
	C331.622314,269.764008 331.029846,267.485291 331.363464,265.378845 
	C331.542969,264.245483 332.699677,263.266876 333.415466,262.218445 
	C334.227692,263.339294 335.633209,264.406586 335.740112,265.591095 
	C336.052460,269.050354 335.715088,272.562622 335.879669,276.042389 
	C336.052521,279.696991 334.515289,280.511932 330.896179,279.177521 
z"/>
<path fill="#2A2A2A" opacity="1.000000" stroke="none" 
	d="
M94.907021,269.979431 
	C89.785408,269.315308 91.133194,272.765778 91.046837,275.107727 
	C90.949036,277.760101 91.558952,280.891510 86.549644,279.183868 
	C86.549644,277.695526 86.549644,276.076263 86.549644,274.457031 
	C86.549644,268.532410 86.549644,262.607819 86.549644,256.240479 
	C91.206161,256.240479 95.315498,256.136993 99.410721,256.331207 
	C100.192421,256.368286 100.918411,257.580048 101.670120,258.249847 
	C100.863602,258.824951 100.092857,259.824249 99.243889,259.895844 
	C96.655067,260.114227 94.036102,259.975128 91.230400,259.975128 
	C91.230400,262.205750 91.230400,263.942139 91.230400,266.202789 
	C93.204018,266.202789 95.032913,265.934143 96.730644,266.290436 
	C98.016678,266.560364 99.135437,267.627258 100.328644,268.339508 
	C99.166161,268.887573 98.023880,269.486938 96.830475,269.956421 
	C96.399849,270.125824 95.846535,269.983398 94.907021,269.979431 
z"/>
<path fill="#2D2D2D" opacity="1.000000" stroke="none" 
	d="
M364.391113,269.492645 
	C364.390991,273.038757 364.390991,276.150299 364.390991,279.253754 
	C361.318604,279.474121 358.216522,280.270752 355.386658,279.705231 
	C353.376373,279.303467 350.604828,277.297302 350.250580,275.578918 
	C349.911652,273.934784 351.855865,271.205292 353.538849,269.940857 
	C355.062958,268.795776 357.588531,268.983551 359.945526,268.531250 
	C358.066132,260.728699 353.084930,270.410339 350.389984,266.273407 
	C351.928894,262.594788 355.114807,261.635834 358.974365,262.095398 
	C363.035461,262.578979 364.533600,265.220398 364.391113,269.492645 
M357.683441,271.692657 
	C356.539856,272.605774 355.396271,273.518890 354.252686,274.432007 
	C354.895508,275.104065 355.540039,276.329956 356.180756,276.327942 
	C357.357300,276.324310 359.077698,275.903717 359.540863,275.078522 
	C359.939789,274.367645 358.904846,272.852020 357.683441,271.692657 
z"/>
<path fill="#292929" opacity="1.000000" stroke="none" 
	d="
M117.368835,274.875610 
	C117.458672,276.619476 117.533043,277.906372 117.609917,279.236603 
	C114.326889,279.480774 111.196289,280.307617 108.356339,279.722900 
	C106.352913,279.310394 103.379578,277.047394 103.305618,275.493225 
	C103.214073,273.569641 105.327728,271.072632 107.145203,269.680450 
	C108.508484,268.636230 110.908600,268.945618 113.075348,268.617828 
	C111.053818,260.608429 106.393356,270.325470 103.683823,266.329437 
	C104.367241,262.365448 107.748825,261.899170 111.273285,262.058960 
	C114.576561,262.208740 117.038811,263.733429 117.251236,267.438538 
	C117.384308,269.759583 117.325874,272.091553 117.368835,274.875610 
M109.065399,271.922546 
	C108.567963,273.124969 108.070526,274.327423 107.573090,275.529846 
	C108.771538,275.794373 110.079369,276.469482 111.132629,276.188934 
	C111.925659,275.977661 112.392303,274.541229 113.004227,273.650146 
	C111.955109,273.024872 110.905998,272.399597 109.065399,271.922546 
z"/>
<path fill="#343434" opacity="1.000000" stroke="none" 
	d="
M161.867569,271.115204 
	C161.828491,273.410065 162.120209,275.309662 161.706360,277.040527 
	C161.455826,278.088348 160.112061,278.874786 159.259460,279.778625 
	C158.527771,278.911865 157.184753,278.061096 157.161591,277.175812 
	C156.984451,270.405609 157.064377,263.628693 157.064377,256.211304 
	C161.822983,256.211304 166.090500,256.134491 170.349533,256.289978 
	C171.027771,256.314758 171.667892,257.383362 172.325623,257.969391 
	C171.616516,258.645355 170.955063,259.832977 170.189621,259.904266 
	C167.579651,260.147369 164.933044,259.997314 162.062500,259.997314 
	C162.062500,262.075531 162.062500,263.817749 162.062500,265.582092 
	C164.569199,267.809265 169.721405,263.636078 171.412750,269.450714 
	C167.920090,269.890656 164.910553,270.269745 161.867569,271.115204 
z"/>
<path fill="#2E2E2E" opacity="1.000000" stroke="none" 
	d="
M192.496643,267.824036 
	C195.429901,262.153687 199.793472,260.490448 204.321869,262.981049 
	C208.207047,265.117889 209.691055,271.264313 207.399414,275.727631 
	C205.370331,279.679565 200.385620,281.237183 196.318832,278.995514 
	C191.954773,276.590027 191.739426,272.517853 192.496643,267.824036 
M196.493256,271.445801 
	C197.468338,275.969116 200.519485,278.017151 202.341797,275.353088 
	C203.618622,273.486572 203.529114,270.441772 203.372192,267.966125 
	C203.314819,267.060944 201.303055,266.279694 200.182861,265.441895 
	C198.954376,267.142822 197.725891,268.843719 196.493256,271.445801 
z"/>
<path fill="#303030" opacity="1.000000" stroke="none" 
	d="
M129.567108,279.808960 
	C124.970566,280.366913 121.730881,279.256409 120.941139,273.779999 
	C122.350769,274.394440 123.723160,275.126434 125.181160,275.588135 
	C126.475288,275.997986 127.859810,276.202179 129.215637,276.268738 
	C129.480103,276.281738 130.146729,274.858307 130.032761,274.755219 
	C129.129807,273.938385 128.144897,273.159088 127.063248,272.607239 
	C125.896835,272.012085 124.508095,271.835693 123.374680,271.196075 
	C120.101097,269.348663 119.843285,265.812836 122.711067,263.443024 
	C126.463287,260.342346 132.253876,261.960876 135.082291,268.283112 
	C132.443878,267.192749 130.941635,266.464233 129.367477,265.960297 
	C128.365799,265.639618 127.243126,265.497986 126.204193,265.594238 
	C125.809975,265.630737 125.116356,266.925598 125.209633,267.022766 
	C125.945770,267.789917 126.794418,268.478180 127.701187,269.041443 
	C128.242874,269.377930 129.092255,269.276093 129.560043,269.664368 
	C131.335327,271.138092 134.495850,272.868774 134.368225,274.246796 
	C134.187729,276.195496 131.551407,277.916748 129.567108,279.808960 
z"/>
<path fill="#2E2E2E" opacity="1.000000" stroke="none" 
	d="
M285.162720,269.797485 
	C286.913818,271.701996 289.797882,274.153900 289.359253,275.166504 
	C288.494171,277.163544 285.985931,279.178925 283.798279,279.711060 
	C280.006836,280.633240 276.583374,279.323090 274.730347,273.425629 
	C277.139313,274.458435 278.574646,275.219086 280.100067,275.683746 
	C281.415039,276.084290 282.830322,276.245056 284.207001,276.279144 
	C284.486542,276.286041 285.141785,274.861328 285.030090,274.761566 
	C284.115906,273.945282 283.149048,273.061768 282.031555,272.624023 
	C279.154297,271.496948 275.121216,271.160339 275.903107,266.929199 
	C276.242035,265.095184 278.777710,262.860504 280.738586,262.307281 
	C284.389496,261.277283 287.986084,262.058167 289.863129,267.531158 
	C286.218628,266.761932 283.276245,266.140900 280.333862,265.519867 
	C280.145264,266.205811 279.956665,266.891754 279.768066,267.577698 
	C281.443237,268.283173 283.118378,268.988678 285.162720,269.797485 
z"/>
<path fill="#2C2C2C" opacity="1.000000" stroke="none" 
	d="
M187.632431,277.645172 
	C183.550797,280.834290 179.505478,280.980804 176.132614,277.666504 
	C172.846741,274.437744 172.915604,270.201202 174.773209,266.134979 
	C176.488953,262.379303 179.814209,261.539154 183.508530,262.126556 
	C189.693192,263.109863 191.726990,270.342651 187.632431,277.645172 
M185.762619,270.686340 
	C184.386292,268.942780 183.009964,267.199188 181.633636,265.455597 
	C180.418625,267.322205 178.366211,269.135345 178.242538,271.071655 
	C178.135559,272.746704 179.911530,275.675354 181.396866,276.084808 
	C184.570862,276.959747 185.410431,274.129028 185.762619,270.686340 
z"/>
<path fill="#373737" opacity="1.000000" stroke="none" 
	d="
M392.489258,275.893127 
	C393.430634,276.934418 394.007904,277.773560 394.585175,278.612671 
	C393.800995,279.071930 392.855988,280.065887 392.263519,279.887726 
	C390.649292,279.402222 388.374878,278.774841 387.842987,277.556946 
	C386.972321,275.563293 387.420532,273.033051 387.039917,270.775085 
	C386.645782,268.436981 385.927216,266.153564 385.073120,262.736145 
	C385.947998,261.794647 387.712372,259.895935 389.476746,257.997192 
	C391.222748,259.922272 392.968781,261.847351 394.808624,263.875885 
	C389.735992,267.036102 391.832733,271.546875 392.489258,275.893127 
z"/>
<path fill="#2A2A2A" opacity="1.000000" stroke="none" 
	d="
M298.070801,260.755981 
	C299.114594,261.909302 300.123627,262.663757 301.147888,263.429565 
	C297.001434,268.083832 296.912903,272.080200 300.391815,276.787720 
	C300.762268,277.289032 299.941711,279.573700 299.283661,279.778656 
	C296.117126,280.764771 293.902740,278.355743 293.608704,274.200775 
	C293.362701,270.724457 292.905487,267.263092 292.541840,263.795105 
	C292.109924,263.857727 291.678040,263.920349 291.246155,263.982971 
	C292.048279,262.540833 292.763031,261.039093 293.689331,259.681671 
	C294.153809,259.000977 295.278015,257.996552 295.626038,258.159424 
	C296.566254,258.599548 297.250336,259.586884 298.070801,260.755981 
z"/>
<path fill="#262626" opacity="1.000000" stroke="none" 
	d="
M140.257446,258.051270 
	C142.482559,259.878998 144.299789,261.725677 146.106842,263.562012 
	C142.114594,267.718414 141.914154,272.527100 145.379028,276.612152 
	C145.822525,277.135010 146.146942,278.208588 145.903275,278.742706 
	C145.640518,279.318695 144.658051,279.867157 143.966782,279.896790 
	C140.149506,280.060516 138.791992,277.993256 138.715698,274.325500 
	C138.546387,266.187408 138.439651,266.189636 136.155701,264.181702 
	C137.388489,262.142029 138.619019,260.106140 140.257446,258.051270 
z"/>
<path fill="#1F1F1F" opacity="1.000000" stroke="none" 
	d="
M33.540485,137.716064 
	C31.937344,131.415848 32.395306,130.825089 38.429424,130.797012 
	C40.245461,130.788574 42.259026,130.314377 43.820286,130.946762 
	C45.282898,131.539215 47.205170,133.312485 47.207157,134.568802 
	C47.209301,135.928635 45.332840,138.321609 44.083279,138.454498 
	C40.723183,138.811859 37.260475,138.204437 33.540485,137.716064 
z"/>
<path fill="#3A3A3A" opacity="1.000000" stroke="none" 
	d="
M343.865906,269.465607 
	C343.846100,272.244873 344.080811,274.616547 343.714233,276.891296 
	C343.543579,277.950378 342.206512,278.821503 341.398132,279.777832 
	C340.684540,278.896454 339.393494,278.040100 339.354034,277.129547 
	C339.147186,272.356873 339.257355,267.570496 339.257355,262.425415 
	C342.636414,262.425415 345.481995,262.425415 349.883392,262.425415 
	C348.508820,264.071716 347.682526,265.139832 346.771667,266.130188 
	C345.849426,267.132935 344.843506,268.058777 343.865906,269.465607 
z"/>
<path fill="#F9F9F9" opacity="1.000000" stroke="none" 
	d="
M129.172806,148.712097 
	C135.531586,147.246719 141.436600,147.023148 146.812576,150.586563 
	C153.789169,155.210953 153.424576,165.445862 145.761780,168.790909 
	C141.862305,170.493149 137.119217,170.947540 132.792053,170.817230 
	C126.990616,170.642517 123.792900,167.487686 122.875359,162.713577 
	C121.622780,156.196213 123.471092,151.892746 129.172806,148.712097 
z"/>
<path fill="#F8F8F8" opacity="1.000000" stroke="none" 
	d="
M147.784042,212.880554 
	C141.639008,216.495163 135.436768,216.698944 129.158188,214.872757 
	C125.111885,213.695877 122.804359,210.853958 122.635307,206.450806 
	C122.459167,201.863449 123.874992,198.182098 128.455795,196.519547 
	C134.155060,194.451065 139.920090,194.575943 145.473358,197.034409 
	C152.563614,200.173325 153.616043,206.795746 147.784042,212.880554 
z"/>
<path fill="#F7F7F7" opacity="1.000000" stroke="none" 
	d="
M542.726562,189.392761 
	C547.480164,197.017990 546.183533,204.507996 539.655518,208.849960 
	C533.986023,212.620941 526.759155,211.213562 522.461670,205.501587 
	C518.259644,199.916458 519.299866,191.931229 524.848633,187.178101 
	C530.260071,182.542633 536.385559,183.216171 542.726562,189.392761 
z"/>
<path fill="#F3F3F3" opacity="1.000000" stroke="none" 
	d="
M429.192932,213.060287 
	C430.633057,218.040512 428.869843,220.691513 423.905518,221.687546 
	C418.646912,222.742615 412.824921,220.382126 412.919891,216.735840 
	C412.971283,214.762482 414.718323,211.946182 416.474396,211.080887 
	C420.705872,208.995819 425.183167,209.275558 429.192932,213.060287 
z"/>
<path fill="#F1F1F1" opacity="1.000000" stroke="none" 
	d="
M237.866913,209.987228 
	C239.870102,210.443069 241.617737,210.599640 243.003799,211.390167 
	C247.052231,213.699112 247.014862,218.188980 242.979858,220.535568 
	C241.862488,221.185394 240.498764,221.513901 239.204453,221.739456 
	C233.725845,222.694214 228.757065,220.122314 228.441269,216.259506 
	C228.130905,212.463089 231.130798,210.370346 237.866913,209.987228 
z"/>
<path fill="#FFFDFB" opacity="1.000000" stroke="none" 
	d="
M101.102478,60.515728 
	C101.975975,59.436516 102.587959,58.629700 103.334984,57.977573 
	C106.986916,54.789577 107.994919,55.048386 110.056183,59.497734 
	C110.658928,60.798790 111.436211,62.018990 112.900337,64.658943 
	C113.817795,60.810303 114.451019,58.367989 114.979103,55.903152 
	C117.876701,42.378555 127.748596,33.292286 139.627121,32.830307 
	C144.850906,32.627140 148.390839,34.131222 149.535767,39.605736 
	C149.722427,40.498230 150.331039,41.302471 151.030548,42.731720 
	C162.461807,31.752218 173.204239,20.227266 191.139496,28.137381 
	C207.170547,35.207672 214.152725,46.902367 210.942276,64.545403 
	C221.098343,60.208378 225.877670,61.638767 232.676468,70.539223 
	C240.556702,80.855400 238.339691,94.463974 227.722717,100.946838 
	C220.127716,105.584419 209.832413,103.327530 205.505508,95.607231 
	C204.408829,93.650475 204.527557,90.561836 205.097382,88.241219 
	C205.741608,85.617607 207.523239,83.273285 209.370239,79.734650 
	C206.762756,80.877419 205.230362,81.975334 203.582535,82.190895 
	C198.731506,82.825500 193.622009,84.192688 189.004318,83.285233 
	C181.558960,81.822098 181.130875,79.702141 183.884781,72.796730 
	C184.796158,70.511444 184.770111,67.852310 184.559479,64.958694 
	C176.898300,69.799545 170.617432,78.470741 161.046509,76.171265 
	C152.661133,74.156609 145.028854,69.007309 136.988312,65.206940 
	C137.147507,67.178146 137.389862,70.178902 137.695114,73.958504 
	C128.301758,74.648537 119.070099,75.882851 109.844894,75.836342 
	C101.811775,75.795853 98.013535,68.717567 101.102478,60.515728 
z"/>
<path fill="#F3F3F3" opacity="1.000000" stroke="none" 
	d="
M242.730011,265.924194 
	C242.666656,263.816589 242.666656,262.181519 242.666656,259.211853 
	C245.548874,260.237061 247.909729,260.831451 249.959488,261.980682 
	C250.463531,262.263306 250.205902,265.367828 249.868179,265.452148 
	C247.574326,266.024963 245.165237,266.136292 242.730011,265.924194 
z"/>
<path fill="#E3E3E3" opacity="1.000000" stroke="none" 
	d="
M218.856018,265.471252 
	C221.547424,267.384705 222.994370,273.317017 221.022415,274.918762 
	C219.971573,275.772308 216.789429,275.648956 215.872482,274.703125 
	C213.389404,272.141754 214.955032,267.449982 218.856018,265.471252 
z"/>
<path fill="#DDDDDD" opacity="1.000000" stroke="none" 
	d="
M358.093658,271.692444 
	C358.904846,272.852020 359.939789,274.367645 359.540863,275.078522 
	C359.077698,275.903717 357.357300,276.324310 356.180756,276.327942 
	C355.540039,276.329956 354.895508,275.104065 354.252686,274.432007 
	C355.396271,273.518890 356.539856,272.605774 358.093658,271.692444 
z"/>
<path fill="#DDDDDD" opacity="1.000000" stroke="none" 
	d="
M109.461143,271.848450 
	C110.905998,272.399597 111.955109,273.024872 113.004227,273.650146 
	C112.392303,274.541229 111.925659,275.977661 111.132629,276.188934 
	C110.079369,276.469482 108.771538,275.794373 107.573090,275.529846 
	C108.070526,274.327423 108.567963,273.124969 109.461143,271.848450 
z"/>
<path fill="#EBEBEB" opacity="1.000000" stroke="none" 
	d="
M196.495331,270.995239 
	C197.725891,268.843719 198.954376,267.142822 200.182861,265.441895 
	C201.303055,266.279694 203.314819,267.060944 203.372192,267.966125 
	C203.529114,270.441772 203.618622,273.486572 202.341797,275.353088 
	C200.519485,278.017151 197.468338,275.969116 196.495331,270.995239 
z"/>
<path fill="#EBEBEB" opacity="1.000000" stroke="none" 
	d="
M185.742584,271.078979 
	C185.410431,274.129028 184.570862,276.959747 181.396866,276.084808 
	C179.911530,275.675354 178.135559,272.746704 178.242538,271.071655 
	C178.366211,269.135345 180.418625,267.322205 181.633636,265.455597 
	C183.009964,267.199188 184.386292,268.942780 185.742584,271.078979 
z"/>
</svg>