<svg width="34" height="34" viewBox="0 0 34 34" fill="none" xmlns="http://www.w3.org/2000/svg">
<path d="M5.35033 16.9184C4.0073 14.5766 3.35882 12.6643 2.9678 10.7259C2.38949 7.85911 3.71293 5.05869 5.90532 3.27179C6.83192 2.51658 7.89411 2.77461 8.44203 3.75761L9.67904 5.97683C10.6595 7.73585 11.1498 8.61535 11.0525 9.5478C10.9553 10.4802 10.2941 11.2397 8.97182 12.7586L5.35033 16.9184ZM5.35033 16.9184C8.06875 21.6585 12.3348 25.9269 17.0803 28.6484M17.0803 28.6484C19.4222 29.9914 21.3344 30.64 23.2728 31.031C26.1396 31.6093 28.9401 30.2858 30.7269 28.0934C31.4821 27.1669 31.2242 26.1047 30.2411 25.5567L28.0219 24.3197C26.2628 23.3392 25.3834 22.849 24.4509 22.9462C23.5185 23.0434 22.759 23.7046 21.2402 25.0269L17.0803 28.6484Z" stroke="white" stroke-width="1.5" stroke-linejoin="round"/>
<path d="M19.832 9.6785C21.8482 10.5347 23.4641 12.1505 24.3203 14.1667M20.7585 2.83337C25.7696 4.27945 29.7191 8.22878 31.1654 13.2397" stroke="white" stroke-width="1.5" stroke-linecap="round"/>
</svg>
