<svg width="101" height="10" viewBox="0 0 101 10" fill="none" xmlns="http://www.w3.org/2000/svg">
<path d="M88.0163 4.89408V2.31544H87.7563V4.86594H86.9762V2.74462H86.7162V4.86594H53.7972C53.7452 3.11753 52.3307 1.71035 50.5937 1.71035C48.8568 1.71035 47.4422 3.11753 47.3902 4.86594H14.2841V2.74462H14.024V4.86594H13.2994V4.96092C13.2821 4.9574 13.2613 4.95388 13.2405 4.95037V2.31544H12.9805V4.89408C11.7566 4.61264 8.73344 3.64522 7.36051 0.820312L4.25757 4.99962L7.36051 9.17893C8.73344 6.35051 11.7566 5.38659 12.9805 5.10516V7.62048H13.2405V5.04887C13.2613 5.04535 13.2786 5.04183 13.2994 5.03831V5.13331H14.0206V7.3109H14.2806V5.13331H47.3902C47.4769 6.85006 48.8776 8.22205 50.5903 8.22205C52.3029 8.22205 53.7036 6.85006 53.7903 5.13331H86.7127V7.3109H86.9727V5.13331H87.7528V7.62048H88.0128V5.10516C89.2367 5.38659 92.2599 6.35403 93.6328 9.17893L96.7357 4.99962L93.6328 0.820312C92.2633 3.64522 89.2401 4.60913 88.0163 4.89408ZM50.5937 2.05862C52.14 2.05862 53.3985 3.30749 53.4505 4.86242H52.4798C52.4278 3.84925 51.6061 3.04365 50.5937 3.04365C49.5814 3.04365 48.7597 3.84925 48.7077 4.86242H47.7369C47.7889 3.30749 49.0475 2.05862 50.5937 2.05862ZM50.5937 7.86674C49.0717 7.86674 47.8271 6.65305 47.7404 5.12978H48.7112C48.7944 6.11129 49.6056 6.88523 50.5937 6.88523C51.5818 6.88523 52.3931 6.11481 52.4763 5.12978H53.4471C53.3604 6.65305 52.1157 7.86674 50.5937 7.86674Z" fill="#F1C40F"/>
<path d="M98.1777 3.87402C97.5849 3.87402 97.1064 4.36302 97.1064 4.96106C97.1064 5.56263 97.5884 6.04811 98.1777 6.04811C98.7706 6.04811 99.249 5.55911 99.249 4.96106C99.249 4.36302 98.7706 3.87402 98.1777 3.87402Z" fill="#F1C40F"/>
<path d="M100.417 5.55214C100.739 5.55214 101 5.28754 101 4.96113C101 4.63472 100.739 4.37012 100.417 4.37012C100.096 4.37012 99.835 4.63472 99.835 4.96113C99.835 5.28754 100.096 5.55214 100.417 5.55214Z" fill="#F1C40F"/>
<path d="M2.82203 3.87402C2.22918 3.87402 1.75073 4.36302 1.75073 4.96106C1.75073 5.56263 2.23264 6.04811 2.82203 6.04811C3.41488 6.04811 3.89332 5.55911 3.89332 4.96106C3.89332 4.36302 3.41488 3.87402 2.82203 3.87402Z" fill="#F1C40F"/>
<path d="M0.582452 4.37012C0.260023 4.37012 0 4.63396 0 4.96113C0 5.2883 0.260023 5.55214 0.582452 5.55214C0.904881 5.55214 1.1649 5.2883 1.1649 4.96113C1.1649 4.63396 0.904881 4.37012 0.582452 4.37012Z" fill="#F1C40F"/>
</svg>
