<svg width="180" height="86" viewBox="0 0 180 86" fill="none" xmlns="http://www.w3.org/2000/svg">
<path fill-rule="evenodd" clip-rule="evenodd" d="M147.727 11.0673C148.371 12.6825 149.323 14.0701 150.27 15.5211C151.195 16.9468 152.123 18.3726 153.053 19.7985C154.869 22.5811 156.797 25.3243 158.797 27.9769C159.75 29.2408 160.925 31.3591 162.758 31.0659C163.714 30.913 164.325 29.9701 164.313 29.0456C164.301 28.0798 163.613 27.0933 163.141 26.2863C161.45 23.3956 159.643 20.5844 157.839 17.7631C156.857 16.2262 155.803 14.7338 154.774 13.2267L153.18 10.8882C152.561 10.0125 151.855 9.20178 151.074 8.46829C150.394 7.79984 149.107 7.92858 148.406 8.47038C148.03 8.77205 147.76 9.1877 147.638 9.65553C147.516 10.1234 147.547 10.6184 147.727 11.067V11.0673ZM134.212 14.6283C133.663 16.9555 133.701 19.3718 133.58 21.7508C133.461 24.0658 133.261 26.3745 132.98 28.677C132.699 30.9794 132.401 33.2782 132.084 35.5733C131.936 36.6811 131.779 37.7852 131.58 38.8849C131.313 40.3553 131.064 41.3882 131.885 42.7328C132.494 43.7247 133.853 43.6147 134.689 43.0985C135.947 42.3237 136.096 40.7805 136.425 39.455C136.698 38.3645 136.974 37.2738 137.22 36.1768C137.756 33.7536 138.13 31.2972 138.339 28.8239C138.751 24.0789 139.342 18.709 137.903 14.102C137.651 13.2949 136.636 12.8262 135.85 12.9397C134.939 13.0714 134.41 13.7843 134.212 14.6297V14.6283ZM162.301 -27.5161C170.734 -29.4896 176.822 -36.7692 179.045 -44.9554C181.454 -53.8347 179.072 -63.2001 174.52 -70.9744C164.016 -88.9134 143.152 -99.408 122.696 -98.9878C112.163 -98.7724 101.707 -96.1808 91.7729 -92.8028C82.6085 -89.6771 73.778 -85.6394 65.4131 -80.7499C48.6955 -71.0155 34.0534 -58.0653 22.3246 -42.6407C9.43245 -25.6157 -0.706193 -4.79099 0.0385541 17.0666C0.353069 26.2929 2.62884 35.5647 7.07952 43.6749C11.8863 52.4323 19.1438 59.3156 27.9621 63.9345C37.4064 68.8816 48.1593 71.2216 58.7519 71.6874C67.9529 72.0921 77.2578 71.0425 86.0286 68.1759C94.6095 65.3721 102.606 60.7201 108.849 54.1358C113.931 48.7787 117.753 40.8303 116.709 33.2789C116.469 31.4312 115.862 29.6508 114.922 28.0441C113.983 26.4373 112.73 25.0372 111.24 23.9272C107.264 21.0082 102.119 20.5749 97.3749 21.1601C92.3545 21.7794 87.5122 23.5109 82.8449 25.4036C78.2822 27.2563 73.8509 29.42 69.5819 31.8795C52.6607 41.6112 38.5383 55.5801 28.5911 72.4247C27.428 74.4032 26.348 76.4234 25.3332 78.4809C24.2502 80.6758 23.4016 82.955 22.4462 85.2038C22.1465 85.903 23.2384 86.347 23.5351 85.6479C25.3807 81.307 27.793 77.0871 30.1993 73.0389C32.6105 68.9883 35.2765 65.0963 38.1808 61.3865C43.9598 54.0176 50.632 47.4022 58.0428 41.6937C65.4424 35.9749 73.5426 31.2343 82.1447 27.588C86.6161 25.6989 91.2478 23.9433 96.0486 23.1229C100.781 22.3138 106.14 22.351 110.184 25.3106C116.578 29.993 115.842 38.6372 112.887 45.1009C109.451 52.6094 102.692 58.263 95.5946 62.1679C79.4802 71.035 59.1287 72.0965 41.5841 67.3456C31.7363 64.679 22.2741 59.8356 15.2925 52.2389C9.19802 45.6054 5.1865 37.2488 3.2193 28.4797C-1.35897 8.1071 5.22805 -12.6741 15.8029 -30.0659C25.6389 -46.2377 38.8218 -60.2766 54.0787 -71.3964C69.2644 -82.462 86.622 -90.6717 104.896 -95.029C115.003 -97.4382 125.479 -98.4827 135.737 -96.3826C145.754 -94.3078 155.064 -89.657 162.755 -82.8852C169.808 -76.6656 175.674 -68.4666 177.808 -59.1742C179.757 -50.6951 178.086 -41.6736 172.292 -35.0407C169.6 -31.9616 166.117 -29.5718 162.162 -28.482C161.571 -28.3199 161.681 -27.371 162.301 -27.5161Z" fill="white"/>
</svg>
