<svg width="195" height="116" viewBox="0 0 195 116" fill="none" xmlns="http://www.w3.org/2000/svg">
<path opacity="0.1" fill-rule="evenodd" clip-rule="evenodd" d="M171.836 5.3289C171.602 5.98472 171.527 6.68675 171.617 7.37727C171.707 8.06778 171.96 8.72707 172.354 9.30091C172.778 10.3523 173.309 11.3575 173.937 12.3009C173.997 12.4339 174.472 14.2349 174.568 14.7679C175.148 17.7279 175.365 20.7474 175.215 23.7599C174.976 29.7424 173.398 35.5953 170.599 40.8879C166.872 47.8134 161.013 53.3539 153.89 56.6879C147.215 42.2789 130.85 32.3299 115.003 37.7409C103.903 41.5339 97.9902 53.6489 104.051 64.1989C109.522 73.7209 120.022 78.0349 130.493 79.2569C132.609 79.4907 134.737 79.6036 136.866 79.5949C134.282 87.4239 128.266 94.5839 121.866 99.7469C116.628 103.965 110.733 107.296 104.417 109.606C101.172 94.4699 87.0032 81.6199 70.7582 88.2339C62.3582 91.6539 55.4382 100.164 55.3262 109.462C55.1862 121.162 64.4371 128.818 75.0972 131.248C75.6082 131.365 76.1292 131.439 76.6441 131.537C76.0572 131.966 75.4632 132.39 74.8502 132.795C68.9957 136.438 62.4581 138.846 55.6392 139.87C40.8742 142.28 26.6212 138.612 13.8592 130.799C4.38015 124.999 -5.38585 137.692 3.48215 144.833C19.1701 157.467 42.0602 161.489 61.5232 157.541C77.3342 154.333 94.3492 145.259 101.614 130.341C111.74 127.7 121.314 123.278 129.889 117.281C143.272 107.924 155.137 92.6809 156.902 75.9889C169.725 71.2343 180.409 62.0252 187.003 50.0439C192.293 40.2385 194.676 29.1281 193.874 18.0159C193.483 11.9339 191.428 5.96491 186.358 2.24891C181.533 -1.28809 174.156 -0.933103 171.836 5.3289ZM79.1742 113.036C78.2897 112.923 77.4303 112.663 76.6311 112.268L75.8832 111.968C75.3832 111.586 74.0241 110.558 74.7831 111.29L74.2672 110.79L73.9672 110.165C74.0222 109.845 74.0892 109.445 74.1182 109.196C74.2182 108.954 74.3131 108.696 74.3772 108.557C74.4212 108.496 74.4822 108.406 74.5772 108.257C74.6952 108.078 75.1772 107.494 75.3362 107.264C75.7908 106.836 76.2706 106.435 76.7732 106.064C77.1497 105.89 77.5145 105.692 77.8652 105.471C78.0982 105.458 79.3452 105.147 79.5292 105.095L79.8012 105.115C80.0087 105.147 80.2141 105.191 80.4162 105.248C80.8023 105.382 81.1808 105.537 81.5502 105.713C81.7342 105.84 82.1772 106.113 82.2662 106.174C82.4725 106.329 82.6893 106.47 82.9152 106.596C83.0042 106.711 83.1382 106.871 83.3562 107.118C84.927 108.896 85.9535 111.088 86.3132 113.433C83.9261 113.571 81.5311 113.438 79.1742 113.036ZM124.785 58.3299C123.915 57.895 123.092 57.3713 122.329 56.7669C122.178 56.6499 121.329 55.8509 121.173 55.7189C121.402 55.6309 121.665 55.5309 121.782 55.4779C122.25 55.3779 122.718 55.3189 123.189 55.2159C123.345 55.1809 123.46 55.1569 123.575 55.1339C124.157 55.1467 124.737 55.1901 125.314 55.2639C127.128 55.5254 128.859 56.1949 130.376 57.2219C131.796 58.1008 133.072 59.1925 134.16 60.4589C130.936 60.2943 127.764 59.574 124.785 58.3299Z" fill="#3F9065"/>
</svg>
