<svg width="100" height="142" viewBox="0 0 100 142" fill="none" xmlns="http://www.w3.org/2000/svg">
<path d="M99.576 70.2378C99.2358 70.0533 98.8481 69.9737 98.4624 70.0095C97.6725 70.1197 96.8826 70.3321 96.0927 70.5135C94.8653 70.7475 93.6733 71.1392 92.5464 71.6779C90.9656 72.4839 89.28 73.0669 87.5383 73.4095C85.5877 73.8718 83.6672 74.4527 81.7879 75.1485C80.5557 75.5739 79.4183 76.2818 78.1702 76.6756C77.4025 76.8806 76.701 77.2791 76.1323 77.8326C75.2572 78.6249 74.3075 79.3307 73.2965 79.9416C71.2638 81.3322 69.2312 82.7117 67.1985 84.0811C66.6377 84.4591 66.0452 84.7817 65.4685 85.1201C65.4685 84.8286 65.6976 84.7031 65.8002 84.5376C66.8684 83.0353 68.2577 81.7881 69.8682 80.8862C70.93 80.2358 71.9559 79.5289 72.941 78.7688C74.1012 77.8152 75.3842 77.0214 76.756 76.4078C77.2068 76.2138 77.6232 75.9476 77.9888 75.6208C79.4823 74.0231 81.1303 72.5756 82.9095 71.3005C83.1984 71.0996 83.4629 70.8677 83.6994 70.6078C85.7294 68.6169 87.1357 66.1531 88.7943 63.8791C89.9868 62.2339 91.164 60.5656 92.412 58.9758C93.9468 57.2104 95.0309 55.1019 95.5716 52.8295C95.716 52.4299 95.7684 52.003 95.7245 51.5807C95.6811 51.1585 95.5419 50.7511 95.3187 50.3894C94.9177 50.5233 94.5394 50.7168 94.1971 50.964C91.9221 53.2465 89.6868 55.56 87.4277 57.8583C86.1718 59.1492 84.9078 60.4317 83.6206 61.6989C83.1148 62.2102 82.5382 62.6509 82.0408 63.1469C80.5796 64.5085 79.1336 65.8859 77.6644 67.2474C77.4316 67.4388 77.1861 67.6148 76.9301 67.7745C77.3036 66.5674 77.7655 65.3888 78.3125 64.2486C78.6205 63.5639 78.9284 62.8718 79.268 62.2023C79.9473 60.8961 80.6742 59.6057 81.3377 58.2673C82.2143 56.5046 82.9804 54.6787 83.9285 52.9555C84.8078 51.2987 85.3983 49.5049 85.6739 47.651C85.8876 46.3522 86.2194 45.0855 86.5273 43.8104C86.7087 43.0782 86.9854 42.3703 87.1828 41.6381C87.4907 40.5127 87.1828 40.2059 86.0061 40.1743C85.0105 41.7483 84.0153 43.3223 83.0201 44.8963C82.0249 46.4703 80.9584 48.1623 79.9473 49.8075C79.3638 50.9798 78.6654 52.0926 77.8623 53.1284C77.721 53.3108 77.6015 53.509 77.5068 53.7188C76.7719 54.9939 76.0058 56.2606 75.3027 57.5594C74.5128 59.0074 73.8023 60.4791 73.0595 61.943C72.7595 62.7363 72.3532 63.4853 71.8511 64.1701C71.8035 63.9023 71.7797 63.7842 71.7564 63.6661C71.5982 62.7927 71.4638 61.9192 71.2824 61.0616C71.1559 60.4475 70.911 59.865 70.8163 59.2515C70.6269 58.0865 70.4925 56.8905 70.366 55.7492C70.2131 54.5421 70.2428 53.3192 70.4528 52.1211C70.5454 51.3367 70.5454 50.5444 70.4528 49.7601C70.4528 49.3036 70.3264 48.855 70.2872 48.3985C70.1925 47.3991 70.1528 46.3838 70.0105 45.3844C69.8682 44.385 69.655 43.4562 69.4338 42.5037C69.347 42.2095 69.1963 41.9381 68.9915 41.7093C68.7074 41.3783 68.4307 41.4336 68.2016 41.8116C67.9725 42.189 67.8778 42.4488 67.6726 42.7398C66.7245 44.0703 66.2584 45.7228 65.4844 47.2183C65.4399 47.3073 65.4108 47.4028 65.3976 47.5013C65.0066 49.0305 64.9902 50.6314 65.35 52.1685C65.7478 53.5933 65.8103 55.0909 65.532 56.5441C65.3029 57.7639 65.2394 59.0074 65.0976 60.2351C65.0976 60.4317 65.0421 60.6283 65.0024 60.8176C64.7056 62.4659 64.6363 64.1474 64.7971 65.8147C64.8765 67.2079 65.2082 68.5853 65.3817 69.97C65.6383 71.3938 65.6383 72.8518 65.3817 74.275C64.995 76.275 64.4157 78.2332 63.6517 80.1224C63.4501 80.6585 63.1851 81.1683 62.8618 81.6416C61.7719 83.0343 60.6186 84.38 59.5605 85.789C58.2965 87.4574 57.1114 89.1811 55.8713 90.8652C55.5237 91.3454 55.0814 91.7782 54.718 92.2268C54.9497 91.0919 55.2423 89.9697 55.5952 88.8664C56.7168 85.2619 57.8622 81.6653 58.9679 78.0529C59.7578 75.4795 60.4922 72.8903 61.2588 70.3084C61.5349 69.3881 61.8037 68.4751 62.0878 67.57C62.1402 67.472 62.1725 67.3644 62.183 67.2537C62.1931 67.143 62.1815 67.0318 62.1487 66.9259C62.1153 66.8194 62.0619 66.7208 61.9905 66.6359C61.919 66.5506 61.8312 66.4799 61.7323 66.4288C61.5841 66.5326 61.4487 66.6544 61.3296 66.7909C60.4689 68.0734 59.5996 69.3406 58.7939 70.6547C57.7516 72.3236 56.7168 73.9999 55.7607 75.7151C54.9709 77.2106 54.2286 78.7688 53.4467 80.2879C52.6647 81.8066 51.7875 83.2077 51.1399 84.7343C49.8289 87.8195 48.62 90.9438 47.4196 94.068C46.9503 95.1608 46.7006 96.3347 46.6852 97.5233C46.6789 98.8079 46.3821 100.075 45.816 101.23C45.5239 101.891 45.1763 102.52 44.8917 103.181C44.1812 104.835 43.4543 106.487 42.7987 108.163C42.4067 109.174 42.0845 110.21 41.8348 111.264C41.6888 112.036 41.3555 112.76 40.8635 113.373C39.7117 114.691 38.8816 116.256 38.4388 117.946C38.3002 118.438 37.9779 118.857 37.5383 119.119C37.5383 118.827 37.5933 118.67 37.6251 118.512C37.9568 117.216 38.2202 115.902 38.4149 114.577C38.5721 113.108 38.8657 111.657 39.2916 110.241C39.4456 109.674 39.5329 109.09 39.5524 108.502C39.5995 107.715 39.5048 106.991 39.5524 106.243C39.7815 103.371 40.1132 100.506 40.2788 97.6335C40.4053 95.4849 40.3503 93.3206 40.3582 91.1641C40.3582 90.1568 40.3582 89.1415 40.2868 88.1342C40.2217 87.8221 40.1212 87.5185 39.9868 87.2291C39.663 87.5913 39.3863 87.78 39.2757 88.0161C38.7705 89.2596 38.3123 90.5268 37.8224 91.7861C37.3325 93.0449 36.859 94.3042 36.3294 95.5398C35.6342 97.1691 34.7972 98.7431 34.1967 100.404C32.9804 104.083 32.3588 107.933 32.3561 111.807C32.3794 113.731 32.5164 115.652 32.7672 117.56C32.9169 119.055 33.154 120.543 33.391 122.03C33.6164 123.015 33.6164 124.037 33.391 125.021C32.9725 126.469 32.7275 127.956 31.8112 129.231C31.7403 129.326 31.7403 129.476 31.6847 129.594C31.3768 130.422 31.0261 131.233 30.6346 132.025C29.3944 134.339 28.0438 136.598 26.8507 138.935C26.2423 140.123 26.4873 141.296 27.8538 141.689C28.1697 141.784 28.494 141.863 28.8098 141.949C28.9992 142.016 29.2056 142.017 29.396 141.953C29.5865 141.888 29.75 141.763 29.86 141.595C30.2854 141.056 30.6679 140.485 31.0054 139.887C31.7953 138.313 32.4746 136.739 33.2963 135.165C34.1967 133.489 35.2157 131.876 36.1797 130.231C36.7225 129.17 37.6526 128.356 38.7784 127.956C39.8328 127.593 40.8365 127.096 41.7639 126.477C43.4384 125.367 45.0182 124.116 46.6455 122.959C47.9624 121.972 49.1745 120.854 50.2633 119.622C51.2008 118.615 52.1721 117.639 53.1779 116.694C54.6153 115.349 56.1084 114.066 57.5538 112.759C58.1468 112.199 58.7008 111.6 59.2129 110.965C59.9552 110.052 60.5948 109.053 61.3773 108.163C62.4915 106.911 63.466 105.541 64.2839 104.079C64.4918 103.71 64.6585 103.319 64.7812 102.914C64.9622 102.229 65.2796 101.587 65.715 101.027C66.151 100.467 66.6959 100.001 67.317 99.6561C67.9096 99.3857 68.4455 99.0067 68.8968 98.5386C69.4217 98.1106 70.0142 97.7727 70.6501 97.5392C71.7723 96.9251 72.8859 96.2878 74.0155 95.6895C74.8763 95.2251 75.7767 94.816 76.6375 94.3437C77.9962 93.5963 79.2839 92.7223 80.6822 92.0692C82.6651 91.0545 84.5205 89.8105 86.2114 88.3624C86.4008 88.2206 86.4796 87.9455 86.6696 87.6387C86.2664 87.4178 85.9506 87.1031 85.603 87.072C84.8179 86.9487 84.0184 86.9487 83.2333 87.072C80.6584 87.615 78.1067 88.2523 75.5556 88.8743C74.3731 89.2812 73.1611 89.597 71.9299 89.8184C70.1036 90.0735 68.3424 90.6712 66.7404 91.5816C65.6817 92.0929 64.6395 92.6516 63.5808 93.1556C62.246 93.7929 60.8794 94.3595 59.5525 95.0205C57.7061 96.0321 55.9898 97.2635 54.4418 98.6878C54.1498 98.9318 53.8492 99.1601 53.4228 99.4748C53.4704 99.1759 53.4228 99.0657 53.5017 98.9951C54.8444 97.1928 56.0533 95.2251 57.8066 93.6511C59.379 92.318 61.1984 91.3043 63.1623 90.6686C64.2839 90.2907 65.4214 89.9522 66.5351 89.5585C68.4392 88.8242 70.3957 88.2322 72.3881 87.7879C73.7637 87.5913 75.0858 87.12 76.2746 86.4031C78.2019 85.1438 80.0976 83.845 82.017 82.5778C83.3143 81.6753 84.7205 80.9405 86.2035 80.3902C87.1098 80.0887 87.9743 79.6765 88.7784 79.1625C91.7248 77.2343 94.6314 75.2276 97.5307 73.2598C98.2555 72.7538 98.9491 72.2045 99.6078 71.6152C99.73 71.544 99.8305 71.4423 99.8993 71.3195C99.9686 71.1966 100.003 71.058 99.9998 70.9173C99.9966 70.7765 99.9554 70.6395 99.8813 70.5198C99.8067 70.4007 99.7014 70.3032 99.576 70.2378ZM78.5337 77.5569C78.7628 77.2185 79.3707 77.1479 79.805 76.9507C79.1712 78.2306 78.3094 79.3855 77.2618 80.3586L77.0803 80.2484C77.5126 79.3244 77.9977 78.4256 78.5337 77.5569ZM75.8714 79.658C76.2111 78.9659 76.5507 78.2575 77.5226 78.084C76.9301 79.1625 76.3772 80.2094 75.7688 81.232C75.664 81.3559 75.5349 81.4566 75.39 81.5283C75.2445 81.6 75.0858 81.6411 74.9239 81.6495C75.2397 80.9964 75.5477 80.327 75.8714 79.658ZM75.0107 79.7213C74.6641 80.6142 74.2546 81.4824 73.7864 82.3184C73.5256 82.7354 72.9172 82.9399 72.4669 83.2393C72.5812 82.494 72.8717 81.7866 73.3134 81.1751C73.7557 80.5636 74.3377 80.065 75.0107 79.7213ZM82.554 63.8944L82.7513 63.9893C82.5069 64.5243 82.3011 65.0751 82.017 65.5632C81.7324 66.0508 81.8038 66.7672 80.8319 67.0661C81.5271 65.9486 81.8429 64.8153 82.554 63.8944ZM81.1324 67.9163C82.5381 66.773 83.8582 65.529 85.0819 64.1938C85.7374 63.556 86.3691 62.887 87.0092 62.226C87.2225 61.9978 87.4198 61.7537 87.7991 61.3605C87.4198 61.3605 87.1907 61.3605 87.0881 61.4079C86.5257 61.8613 85.9971 62.3557 85.5083 62.887C84.8364 63.6925 84.0512 64.3978 83.1783 64.9808C83.4862 64.2328 83.7862 63.4853 84.11 62.7458C84.2094 62.5771 84.3438 62.4321 84.5052 62.3204C85.7543 61.253 86.904 60.0759 87.9409 58.8029C89.1578 57.4803 90.4291 56.1978 91.6851 54.8679C92.3644 54.1594 93.0517 53.4668 93.7468 52.7742C93.905 52.6171 94.0865 52.4911 94.4103 52.2154C94.2225 53.2533 93.8013 54.2353 93.1781 55.0882C92.2459 56.6622 91.2348 58.2362 90.2079 59.7232C89.6868 60.5108 89.0551 61.156 88.4705 61.8718C88.3515 61.9841 88.2377 62.1027 88.1309 62.226C86.9854 63.8 85.84 65.374 84.7263 66.948C83.9423 68.0792 83.0159 69.1055 81.9694 70.0016C80.2791 71.4576 78.7072 73.0395 77.0486 74.527C76.6698 74.8254 76.2561 75.0763 75.8164 75.2745C75.2477 75.5238 74.6938 75.8047 74.1573 76.1168C73.0992 76.8406 72.0881 77.6355 71.0533 78.3913C70.666 78.6744 70.2634 78.9343 69.8682 79.1784L69.6708 78.9659C70.0893 78.3518 70.4607 77.7066 70.9268 77.1162C72.1336 75.4389 73.6414 73.9983 75.3741 72.8666C77.0962 71.7085 78.6855 70.3648 80.1135 68.8604C80.4272 68.5194 80.7679 68.2031 81.1324 67.9163ZM80.4214 66.2085C79.7897 67.3101 79.8129 68.8446 78.2887 69.3564C78.8575 68.231 79.0865 66.8457 80.4214 66.2085ZM77.4591 68.8604C77.2459 69.4982 77.0724 70.0254 76.8904 70.5446C76.8433 70.6943 76.8195 70.8988 76.709 70.9779C75.8598 71.7127 74.9297 72.3489 73.9361 72.8745C74.8683 71.1824 75.8005 69.7655 77.4591 68.8604ZM69.7814 59.4165H69.9946C70.2713 60.7543 70.5554 62.0848 70.7845 63.4226C70.9189 64.0478 71.0109 64.6814 71.0612 65.3192C71.1363 65.8453 71.1014 66.3813 70.9586 66.8932C70.5025 68.0887 69.9475 69.2442 69.2994 70.348C69.264 69.9816 69.264 69.6126 69.2994 69.2463C69.4523 68.4677 69.4682 67.6691 69.347 66.8853C69.2206 65.752 69.1968 64.6028 69.118 63.4616C69.1196 63.2365 69.0931 63.0114 69.0391 62.7927C68.6916 61.5102 69.3629 60.5181 69.7814 59.456V59.4165ZM69.4814 57.7955C69.6708 58.5825 69.1418 58.9521 68.8651 59.4481C68.8947 58.8472 69.11 58.27 69.4814 57.7955ZM69.2603 55.7176C69.5052 56.4024 69.2603 56.8826 68.5572 57.2916L69.2603 55.7176ZM67.1118 68.9474C66.8906 67.0661 66.6853 65.1774 66.598 63.2887C66.543 60.8676 66.6853 58.446 67.025 56.0481C67.0769 54.9412 67.0583 53.8321 66.9695 52.7272C66.9695 51.3815 66.9695 50.0357 67.025 48.6974C67.0403 48.5355 67.0403 48.3721 67.025 48.2098C66.78 47.0211 67.3012 46.0296 67.8149 45.0223C68.0831 44.4872 68.3122 43.9285 68.5572 43.3776H68.7624C68.9365 44.5816 69.118 45.7855 69.2682 46.9979C69.4698 48.2251 69.6015 49.4622 69.6629 50.7047C69.7777 52.0393 69.5941 53.3835 69.1259 54.6397C69.0984 54.7345 69.0555 54.8252 68.9995 54.9069C67.8223 56.1978 67.8149 57.7402 67.9884 59.3458C68.0831 60.2588 68.036 61.1797 68.0911 62.0921C68.1466 63.0051 68.2493 63.8475 68.3281 64.7209C68.4069 65.5944 68.5095 66.4051 68.5413 67.2553C68.5413 67.9712 68.4783 68.6875 68.4942 69.4113C68.4942 70.3875 68.5968 71.3632 68.628 72.3468C68.6481 72.6331 68.6079 72.9198 68.5095 73.1892C67.9016 74.4954 67.2541 75.7863 66.6139 77.0767C66.578 77.1463 66.5266 77.2064 66.4637 77.2528C66.4007 77.2991 66.3277 77.3303 66.2505 77.3445C66.2965 77.0783 66.36 76.8152 66.4404 76.5575C67.2673 74.1095 67.4975 71.5013 67.1118 68.9474ZM54.4259 81.0591C55.0423 79.6818 55.6343 78.297 56.2745 76.9275C56.6374 76.1405 57.0644 75.4163 57.467 74.6767C58.2569 73.3151 59.0468 71.9615 59.8367 70.6078C60.0472 70.1888 60.3128 69.7998 60.6265 69.4508C60.5906 69.7165 60.5376 69.979 60.4689 70.2378C59.2129 74.3852 57.9251 78.5173 56.6533 82.6331C56.1401 84.2936 55.7369 86.0014 55.192 87.654C54.5047 89.7398 53.7228 91.794 52.9647 93.8635C52.5541 94.9731 52.1118 96.0674 51.6849 97.1691C51.6304 97.3615 51.5425 97.5423 51.4246 97.7041C50.5003 98.7589 50.2315 100.152 49.5602 101.34C48.8888 102.528 48.3042 103.701 47.6645 104.897C47.4725 105.245 47.2021 105.545 46.8747 105.771C47.0842 105.006 47.3482 104.256 47.6645 103.528C48.1095 102.69 48.4772 101.813 48.7623 100.907C49.0703 99.908 49.5522 98.9555 49.9315 97.9798C50.3897 96.8544 50.8558 95.7369 51.314 94.6115C51.76 93.3253 52.288 92.0692 52.8938 90.8494C53.0969 90.3033 53.235 89.7356 53.3043 89.1573C53.6122 87.9845 53.8969 86.7964 54.2445 85.6472C54.718 84.0732 55.2238 82.4523 55.7607 80.8704C56.0057 80.1382 56.3533 79.4377 56.6533 78.7219L56.3216 78.588L54.5524 82.641C54.3963 82.4107 54.3027 82.144 54.2804 81.8667C54.2582 81.5894 54.3085 81.3111 54.4259 81.0591ZM49.8289 102.466L50.7373 100.844C50.6426 101.844 50.5241 102.056 49.8289 102.481V102.466ZM53.5572 82.8693C53.636 83.8766 54.1339 84.7342 53.4228 85.6709C53.3519 84.7263 52.7515 83.8766 53.5572 82.8851V82.8693ZM52.5621 84.9941C52.9171 85.7105 52.562 86.3873 52.6488 87.0325C52.8028 87.741 52.7478 88.4789 52.4906 89.1573C52.2383 88.3271 52.0584 87.4764 51.9536 86.6156C52.0589 86.0436 52.2647 85.4944 52.5621 84.9941ZM44.6076 106.479C45.5557 104.425 46.6138 102.418 47.4751 100.333C47.8624 99.2534 48.1275 98.1343 48.265 96.9957C48.71 94.9436 49.3284 92.9321 50.113 90.9833C50.4135 90.1178 50.7844 89.2754 51.1399 88.4257C51.2447 88.227 51.3664 88.0372 51.5034 87.859C51.7325 88.8585 51.9457 89.7319 52.1351 90.6054C52.1266 90.7682 52.0806 90.9274 52.0012 91.0697C51.124 93.3285 50.2791 95.603 49.3707 97.8538C48.802 99.2781 48.1465 100.671 47.546 102.088C47.1746 102.961 46.827 103.851 46.4794 104.732C45.7848 106.574 44.7954 108.29 43.549 109.816C43.5363 109.552 43.5574 109.288 43.6125 109.029C43.9204 108.148 44.205 107.282 44.6076 106.448V106.479ZM37.7668 105.968C37.3722 105.181 37.7668 104.394 38.8652 103.536C39.1572 104.669 38.2097 105.157 37.7668 105.936V105.968ZM39.0942 101.356C39.0942 101.718 39.0942 102.08 39.0942 102.466L37.933 103.119L37.7986 103.001L38.8652 101.317L39.0942 101.356ZM28.6125 140.871L27.8226 139.817C28.2331 139.171 28.7622 139.108 29.5362 139.258L28.6125 140.871ZM63.8655 94.9104C64.6305 93.649 65.8288 92.7065 67.2382 92.2579C67.6313 92.0929 68.0138 91.9037 68.3836 91.6918C69.3269 91.2168 70.3443 90.9053 71.3929 90.7709C72.6489 90.5505 73.897 90.2748 75.1292 89.9839C77.7358 89.2912 80.3267 88.5359 82.9413 87.859C83.3783 87.8237 83.8185 87.8585 84.2444 87.9613L84.292 88.2444C84.1216 88.3798 83.9423 88.5037 83.7544 88.6144C80.998 90.0308 78.2252 91.4319 75.4926 92.8641C75.0027 93.124 74.5763 93.5093 74.1102 93.8008C73.2415 94.3358 72.3722 94.8471 71.4956 95.3748C70.7925 95.7917 70.0423 96.1618 69.3709 96.6183C66.7896 98.3768 64.0242 99.8516 61.1244 101.018C60.2181 101.397 59.3345 101.828 58.478 102.308C56.7956 103.268 55.1841 104.354 53.4705 105.259C51.7563 106.164 50.0892 106.833 48.2094 107.691C48.3518 107.376 48.3909 107.109 48.5491 106.983C50.1289 105.716 51.7796 104.433 53.4546 103.245C54.2995 102.639 55.2793 102.222 56.1798 101.671L61.709 98.4442C62.1354 98.2002 62.5777 97.9798 63.0121 97.7437C64.6342 96.8676 66.2504 95.991 67.862 95.1149C68.0757 94.9826 68.281 94.8376 68.4783 94.6821L68.3836 94.5013L62.8068 96.933C63.2094 96.1302 63.5411 95.524 63.8655 94.9104ZM48.4703 113.972C47.3011 115.16 45.9583 116.183 44.7103 117.301C43.8098 118.088 42.9172 118.93 42.0565 119.78C41.4084 120.417 40.8005 121.102 40.1762 121.771C40.0894 121.873 40.0185 121.999 39.9392 122.109C39.8604 122.007 39.7894 121.897 39.718 121.794C40.8708 119.478 42.1909 117.247 43.6675 115.12C43.7743 114.998 43.8749 114.869 43.968 114.735C44.7531 113.295 45.8287 112.033 47.1275 111.028C49.1734 109.285 51.3553 107.706 53.6519 106.306C54.9952 105.626 56.3771 105.024 57.7908 104.504C58.9362 104 60.0657 103.473 61.1953 102.93C61.7402 102.678 62.2857 102.402 62.8306 102.143L62.9332 102.316L60.0895 104.488L53.1937 109.753C51.5193 111.044 49.9406 112.454 48.4703 113.972ZM48.328 116.608C48.2491 116.246 48.1777 115.947 48.0909 115.538L50.1924 113.492C50.2633 115.05 49.1258 115.687 48.328 116.608ZM47.4434 116.364C46.9773 117.253 46.7641 118.316 45.7451 118.851C46.3059 118.048 46.3138 116.82 47.4434 116.364ZM59.2129 97.1217C59.3314 96.9646 59.5367 96.8307 59.5758 96.6652C59.7657 95.6974 60.5794 95.4533 61.3217 95.0912C62.064 94.7296 62.7041 94.5092 63.3993 94.2178L63.5411 94.3595C62.483 95.6499 61.7011 97.1533 60.3816 98.2471C60.6821 97.1849 61.5429 96.39 61.8587 95.3511C61.8063 95.3052 61.7513 95.263 61.6931 95.2251C61.5688 95.2899 61.4545 95.3721 61.3534 95.4691C60.6186 96.429 59.8843 97.3974 59.1653 98.3652C59.0055 98.5734 58.878 98.8043 58.7859 99.0499C58.6203 99.4827 58.2886 99.6086 57.7828 99.7267C58.1135 98.7863 58.5965 97.9066 59.2129 97.1217ZM56.2904 99.7109C56.5972 99.2397 56.8617 98.7421 57.0802 98.2234C57.3643 97.2635 58.1384 96.9092 59.015 96.5946L56.0137 100.907L55.8004 100.789C55.9427 100.427 56.1084 100.065 56.2904 99.7109ZM56.5348 98.3731L55.1211 100.475C54.9397 100.75 54.7735 101.033 54.5841 101.262C54.4762 101.46 54.3286 101.634 54.1498 101.773C51.7134 103.266 49.4988 105.091 47.5698 107.196C47.3249 107.455 47.1667 107.786 46.9535 108.061C46.5112 108.628 46.0609 109.194 45.6028 109.745C45.1446 110.296 44.7102 110.493 44.8129 111.217C44.8129 111.469 44.4891 111.76 44.3156 112.004L43.5966 113.059C43.004 113.964 42.475 114.908 41.8115 115.758C41.1317 116.725 40.5518 117.759 40.0815 118.843C39.1779 120.728 38.1213 122.536 36.9219 124.25C36.7802 124.435 36.6659 124.639 36.5823 124.856C36.5347 124.982 36.5823 125.234 36.6373 125.281C36.7997 125.375 36.9902 125.408 37.1748 125.375C37.3166 125.375 37.4277 125.178 37.5536 125.06C38.2425 124.417 38.8863 123.728 39.481 122.998C40.4127 121.937 41.4269 120.95 42.5141 120.047C43.4305 119.221 44.4182 118.473 45.5557 117.537C45.5345 117.759 45.4896 117.978 45.4213 118.19C45.069 118.734 44.7653 119.308 44.5129 119.906C44.2843 120.594 43.8452 121.194 43.2569 121.621C41.9692 122.629 40.6661 123.612 39.3704 124.612C39.2826 124.701 39.2033 124.799 39.1334 124.903C39.718 124.982 40.0339 124.628 40.3815 124.383C41.8115 123.4 43.2252 122.385 44.6393 121.385C44.6944 121.385 44.7732 121.33 44.8049 121.283C45.5948 119.929 46.9143 119.15 47.9645 118.064C48.7544 117.277 49.5443 116.403 50.3818 115.632C51.2188 114.861 51.9616 114.349 52.7515 113.672C53.7784 112.751 54.7656 111.792 55.7369 110.824C56.0311 110.493 56.2956 110.137 56.5268 109.761C55.9348 109.611 55.7369 109.95 55.4925 110.186L51.2267 114.286C51.132 114.381 51.0294 114.467 50.8558 114.617C50.8558 114.003 50.8558 113.562 50.7923 112.972C54.8973 109.379 59.1838 105.998 63.6363 102.843C63.3253 103.721 62.7788 104.497 62.0566 105.087C61.036 106.021 60.1763 107.116 59.5129 108.329C58.8489 109.305 58.1013 110.221 57.2776 111.067C56.5348 111.854 55.6978 112.508 54.9079 113.255C53.6598 114.42 52.4515 115.616 51.1875 116.781C49.3073 118.465 47.4593 120.197 45.4763 121.755C43.886 123.13 42.1035 124.268 40.1841 125.131C39.7587 125.315 39.3561 125.548 38.9837 125.824C37.6801 126.656 36.2897 127.345 34.8364 127.878C34.6232 128.153 34.41 128.429 34.1571 128.775L34.5126 129.428C32.9963 132.309 31.4954 135.173 29.9394 138.14H28.5649C28.6389 137.914 28.7289 137.693 28.8336 137.479C29.9076 135.795 31.0451 134.15 32.0482 132.427C32.5244 131.454 32.946 130.455 33.3122 129.436C33.4201 129.071 33.6148 128.736 33.8804 128.462C34.1459 128.188 34.474 127.983 34.8364 127.862C34.7448 127.87 34.6523 127.87 34.5602 127.862C34.4576 127.818 34.357 127.768 34.2602 127.713C34.3782 127.256 34.5285 126.768 34.639 126.28C34.7438 125.845 34.82 125.403 34.8681 124.958C34.9549 123.99 35.0263 123.014 35.0734 122.038C35.0734 121.456 35.0734 120.865 35.0734 120.284C35.1025 120.098 35.1501 119.916 35.2157 119.74V119.677C34.584 118.89 34.7575 117.899 34.6866 117.002C34.5919 115.734 34.6311 114.451 34.6866 113.177C34.6866 110.886 34.6866 108.596 34.8681 106.314C34.9411 104.904 35.1797 103.506 35.5792 102.151C36.7558 98.3889 38.0673 94.6663 39.3625 90.8336C39.6402 91.425 39.7365 92.085 39.6392 92.7302C39.5683 95.0912 39.4498 97.3736 39.3545 99.6951C39.3545 100.136 39.2916 100.482 38.7858 100.726C38.5573 100.821 38.4149 101.128 38.2329 101.34L38.0435 101.269C38.1383 100.75 38.2567 100.231 38.3282 99.6951C38.3991 99.1601 38.4229 98.6646 38.47 98.1211C37.9568 97.9957 37.8303 98.2866 37.7827 98.6408C37.6092 99.8843 37.4039 101.112 37.2775 102.355C37.0087 104.866 36.8193 107.384 36.5267 109.887C36.3373 111.516 36.0215 113.121 35.7924 114.743C35.4691 116.356 35.2871 117.994 35.2474 119.638V119.677L36.0374 118.961C35.949 117.454 36.1172 115.942 36.5347 114.491C37.0066 112.312 37.2944 110.098 37.396 107.872C37.396 106.936 37.9959 106.581 38.7705 106.054C38.7583 106.704 38.7133 107.353 38.6361 107.998C38.4779 108.935 38.2017 109.848 38.0515 110.784C37.8145 112.24 37.6642 113.704 37.4351 115.16C37.3092 115.947 37.0801 116.734 36.9061 117.521C36.7796 118.095 36.669 118.67 36.5505 119.245C36.3214 120.402 36.0532 121.55 35.8633 122.715C35.7606 123.352 35.9347 123.455 36.4876 123.4C37.214 121.991 37.878 120.637 38.6123 119.323C39.489 117.749 40.4291 116.175 41.3454 114.601C41.6131 113.995 42.0559 113.483 42.6173 113.129C42.713 113.07 42.795 112.991 42.858 112.897C42.9204 112.804 42.9622 112.698 42.9802 112.586C43.1225 111.012 43.96 109.706 44.8684 108.281C45.1446 108.974 44.505 109.352 44.6706 109.997C47.9063 105.456 51.9229 101.521 56.5348 98.3731ZM57.1035 91.6839C57.1035 91.8172 57.1987 91.9906 57.1035 92.0692C56.7353 92.6195 56.3316 93.1451 55.8951 93.6432C54.445 95.2857 53.1742 97.0774 52.1039 98.9872C51.8288 99.4189 51.5113 99.8221 51.1558 100.191C52.3875 97.4469 53.9413 94.8582 55.7845 92.4788C56.3057 92.5731 56.4401 92.1556 56.6453 91.833H55.8555L56.93 90.5895C57.0924 90.4309 57.2432 90.2596 57.3802 90.0782C58.96 87.7172 60.6583 85.5054 62.3486 83.2625C62.6486 82.8614 63.1385 82.5936 63.4702 82.2162C63.7977 81.8145 64.1009 81.3939 64.3786 80.9569C64.1892 81.7507 63.8162 82.4892 63.2888 83.1133C62.7581 83.7454 62.2798 84.419 61.8587 85.128C62.3169 85.4111 62.6486 85.3009 62.8306 85.0178C63.2496 84.2772 63.8644 83.6647 64.6077 83.2472C64.6871 83.1882 64.7453 83.1054 64.7733 83.0111C65.0569 82.4613 65.2823 81.8836 65.4452 81.2874C65.6976 79.9495 66.5668 78.9264 67.1435 77.7614C67.7197 76.597 68.5334 75.605 68.8571 74.3383C68.9365 74.0389 69.2682 73.8027 69.4576 73.5513C69.4613 73.0447 69.5222 72.5408 69.6391 72.0479C70.0502 70.9542 70.5554 69.8836 71.0374 68.8135C71.0718 68.746 71.121 68.687 71.1808 68.6406C71.2411 68.5942 71.3109 68.5621 71.385 68.5457C71.8982 68.5457 72.0326 68.2073 72.0167 67.8373C71.922 65.9017 72.8621 64.2802 73.6838 62.6588C75.0657 59.9046 76.5666 57.2052 78.0279 54.49C78.1432 54.2538 78.2782 54.0271 78.431 53.8131C79.96 51.6429 81.361 49.3858 82.6249 47.0527C83.3323 45.7971 84.2269 44.6559 85.2792 43.6686C85.129 44.2511 85.0025 44.8336 84.8369 45.4081C84.6708 45.9827 84.4735 46.3285 84.3788 46.8008C83.9502 48.5561 83.3413 50.2624 82.562 51.8928C81.8773 53.2048 81.3472 54.5912 80.9822 56.0244C80.8324 56.5953 80.6065 57.143 80.3108 57.6538C79.3394 59.7001 78.3517 61.7305 77.3724 63.7763C76.3307 66.1167 75.1297 68.3834 73.7785 70.5604C72.5463 72.457 71.2585 74.3146 69.9475 76.1563C69.5761 76.6835 68.8651 77.0061 68.6127 77.5569C68.4132 78.1536 68.1646 78.7324 67.8699 79.2885C66.9298 80.6733 66.069 82.1218 65.0183 83.4201C63.6125 85.167 62.3169 87.0483 60.3583 88.2681C60.2387 88.3266 60.1377 88.4162 60.0657 88.528C59.4065 89.8437 58.377 90.9401 57.1035 91.6839ZM97.4354 71.6152C95.7372 72.8428 94.0235 74.0547 92.3094 75.2745C90.3624 76.5633 88.3091 77.6845 86.1717 78.6275C85.4374 78.9812 84.7343 79.4145 84.0073 79.784C81.8043 81.0365 79.6786 82.4191 77.6411 83.924C76.0608 84.9925 74.3377 85.8349 72.5225 86.4263C71.4326 86.7805 70.2713 86.9144 69.1497 87.1585C67.3842 87.5596 65.668 88.1505 64.031 88.9212C62.6804 89.5274 61.3693 90.22 60.0816 90.8652C59.9155 90.9438 59.7419 91.007 59.3705 91.1562C59.4869 90.9338 59.616 90.7182 59.7578 90.511C59.8842 90.3534 60.0895 90.259 60.1763 90.0941C61.0609 88.4568 62.7433 87.8116 64.1892 86.867C65.8955 85.7574 67.5858 84.6162 69.2762 83.4755C70.3502 82.7433 71.4088 81.9958 72.641 81.114C72.5738 81.3591 72.4812 81.5968 72.3643 81.8224C72.0172 82.2552 71.7029 82.7127 71.4247 83.1919C70.9427 84.0985 70.1449 84.7985 69.1809 85.1596C67.6012 85.9466 66.0214 86.6388 64.4416 87.3788C64.3469 87.4258 64.2839 87.5596 64.1019 87.7721C64.3167 87.8026 64.5352 87.8026 64.75 87.7721C65.9664 87.2845 67.1827 86.7805 68.399 86.2771C68.9365 86.0568 69.4814 85.8365 70.0343 85.6314C71.5194 85.0806 72.6013 83.8687 73.9838 83.1682C75.1059 82.5541 76.1947 81.8815 77.2459 81.1535C77.4464 81.0486 77.6554 80.959 77.8702 80.8862C78.0438 80.8072 78.2887 80.7834 78.3755 80.6501C78.9601 79.7682 79.9553 79.4693 80.8007 79.0761C81.8038 78.588 82.7831 78.0529 83.7862 77.5648C84.3078 77.3129 84.8528 77.1321 85.4057 76.9038C85.2237 76.2818 85.1686 76.2033 84.5681 76.471C83.6127 76.888 82.6884 77.4072 81.7562 77.8874L79.75 78.832C79.76 78.5642 79.8076 78.2991 79.8923 78.045C80.242 77.1779 80.9076 76.4753 81.7562 76.0773C83.2571 75.4795 84.7581 74.897 86.2982 74.4168C87.2854 74.11 88.344 73.9762 89.3551 73.7005C90.0799 73.5076 90.7899 73.263 91.4798 72.9688C92.3565 72.5988 93.2019 72.1818 94.0706 71.7649C94.4108 71.6384 94.7589 71.5361 95.1134 71.4576C95.8403 71.2636 96.5667 71.0749 97.2937 70.8909C97.4995 70.8545 97.7084 70.8335 97.9174 70.8282L97.9883 70.9779C97.8222 71.2045 97.637 71.418 97.4354 71.6152ZM69.2994 51.0584C69.355 51.2555 69.4735 51.4284 69.4259 51.5307C69.1735 52.1606 68.8968 52.7742 68.636 53.3883C68.5016 53.6555 68.4307 54.112 67.9726 53.8838C67.5144 53.6555 67.6805 53.3092 67.854 53.0182C68.2493 52.3493 68.4466 51.5149 69.2994 51.0584ZM43.2331 82.4676C44.4245 81.3859 45.4996 80.1836 46.4403 78.879C46.8429 78.2812 47.2302 77.6592 47.6645 77.1004C48.8417 75.6124 49.8982 74.0336 50.8241 72.3785C52.4605 69.6743 53.7223 66.7625 54.5762 63.7215C54.6703 63.3783 54.6947 63.0193 54.6471 62.6667C54.564 62.4037 54.4328 62.1586 54.2603 61.943C54.0233 62.0848 53.7149 62.1633 53.5652 62.3678C52.5144 63.7531 51.4325 65.1226 50.5003 66.5864C50.0675 67.3196 49.5448 67.9965 48.9443 68.6011C47.8539 69.5847 47.0878 70.8282 45.7848 71.6152C45.7054 71.6621 45.6583 71.7649 45.5948 71.8355C44.7341 72.8666 43.9045 73.9287 42.9882 74.9129C41.7322 76.2507 40.3973 77.5174 39.1101 78.8478C38.4858 79.4772 37.8462 80.0992 37.2854 80.7755C36.5908 81.6901 35.7961 82.524 34.9157 83.2625C34.274 83.7759 33.6645 84.3278 33.091 84.9156C32.1117 85.8755 31.1477 86.8591 30.1843 87.8511C29.5801 88.4505 29.0077 89.0809 28.4702 89.7398C27.6009 90.8415 26.7957 91.9827 25.9502 93.1002C25.9502 93.1002 25.8318 93.1002 25.6974 93.1002C25.7064 92.9094 25.7328 92.7197 25.7767 92.5336C26.3534 90.6839 26.9454 88.8347 27.53 87.0246C28.1676 84.8059 29.4479 82.8239 31.2113 81.3269C32.4196 80.3196 33.5412 79.2016 34.7655 78.1789C35.9897 77.1558 37.451 76.2191 38.7149 75.1411C39.9788 74.0626 41.3057 72.7327 42.5855 71.5129C43.2252 70.9067 43.8257 70.2457 44.505 69.6869C46.1086 68.3618 47.5936 66.9 48.9443 65.3192C49.3364 64.8253 49.685 64.2987 49.9866 63.7452C50.3897 63.0763 50.7135 62.3599 51.1161 61.6831C52.1351 59.9594 53.1699 58.2441 54.2048 56.5362C54.5127 56.0323 54.8524 55.5447 55.1291 55.025C55.7687 53.8052 56.385 52.5696 57.0009 51.342C57.6172 50.1143 58.2177 48.9335 58.7939 47.7138C58.9917 47.2889 59.2288 46.8166 58.8891 46.3522C57.9331 46.2578 57.9252 46.2499 57.4273 46.864C57.1353 47.2183 56.8823 47.6036 56.6374 47.9578C55.8475 48.9335 55.1132 49.9256 54.3154 50.8776C53.6805 51.6714 52.9917 52.4205 52.2536 53.1205C50.5712 54.6397 48.802 56.056 47.1196 57.5673C45.1446 59.3458 43.2172 61.1797 41.2819 62.9972C40.3502 63.8712 39.4101 64.7367 38.5414 65.6813C37.1828 67.1552 35.8659 68.6612 34.592 70.1983C33.628 71.3632 32.7513 72.5593 31.8509 73.8027C31.4245 74.3694 31.0213 74.9677 30.6108 75.5502L30.4055 75.4637C30.5081 75.0383 30.6346 74.6214 30.7134 74.1886C31.1874 71.5988 32.0419 69.0929 33.2487 66.7514C33.4238 66.3982 33.5793 66.0356 33.7148 65.6655C34.41 63.887 35.0734 62.1079 35.7765 60.3373C36.4399 58.6927 37.1352 57.0634 37.8383 55.4346C38.0912 54.8521 38.1859 54.1594 38.9043 53.8606C39.0229 53.8052 39.0784 53.5928 39.1572 53.451C39.4651 52.7272 39.8365 52.0188 40.255 51.3024C40.5381 50.7431 40.8793 50.216 41.274 49.7284C42.8458 47.9568 44.7976 46.5609 46.9852 45.6443C48.0592 45.172 49.0861 44.5737 50.1448 44.0703C50.6717 43.7355 51.2595 43.5084 51.8748 43.4008C52.9488 43.2833 54.0154 43.0703 55.0814 42.8579C56.3157 42.4942 57.604 42.3476 58.8891 42.4251C59.0166 42.4531 59.1483 42.4531 59.2758 42.4251C60.7688 42.0161 62.2777 41.6381 63.739 41.1658C65.8796 40.4421 68.0043 39.6393 70.129 38.8523C71.8194 38.2224 73.5018 37.5534 75.1842 36.9082C75.5238 36.7823 75.8715 36.68 76.2032 36.5308C77.6491 35.893 79.0548 35.1772 80.5319 34.6337C81.3694 34.3269 82.1747 33.7444 83.1704 34.0122C83.3042 34.0122 83.4862 33.9258 83.6365 33.8625C84.3867 33.5399 85.1448 33.2173 85.8876 32.8631C86.1633 32.774 86.4093 32.6106 86.5981 32.3908C86.8087 32.0597 87.1309 31.8141 87.5066 31.6981C87.7044 31.6038 87.8303 31.3597 87.9965 31.1868C87.8245 31.0055 87.6277 30.8489 87.4119 30.7224C87.2188 30.6861 87.0204 30.6861 86.8273 30.7224C85.5083 30.7224 84.1973 30.7224 82.8778 30.7224C82.198 30.616 81.5123 30.548 80.824 30.5179C79.5156 30.6117 78.2247 30.8764 76.9851 31.3049C74.2387 32.2279 71.3744 32.7582 68.4783 32.8789C68.3122 32.8789 68.1466 32.8789 67.9805 32.8315C66.543 32.7766 65.0897 32.6269 63.6517 32.6823C60.0673 32.9021 56.557 33.794 53.3043 35.3105L53.0276 35.4207C50.9886 36.2625 49.0454 37.3178 47.2302 38.5687C47.0482 38.6868 46.8667 38.789 46.5429 38.9783C46.5784 38.7727 46.6286 38.5703 46.6926 38.3721C47.3566 36.9794 48.0121 35.5783 48.6994 34.2009C49.3866 32.8236 50.2791 31.3128 50.9029 29.7936C51.6018 27.994 52.0071 26.0943 52.1039 24.1666C52.1192 23.7749 52.1827 23.3864 52.2933 23.0101C52.8223 21.3807 53.3361 19.744 53.944 18.1463C54.5958 16.3609 54.9714 14.4875 55.0576 12.5899C55.055 12.1961 55.092 11.8034 55.1682 11.4176C55.7158 9.25424 56.4644 7.14627 57.404 5.12158C58.0198 3.79112 58.4542 2.36683 58.9838 0.973636C59.0219 0.88666 59.0415 0.792835 59.0415 0.697952C59.0415 0.603597 59.0224 0.50924 58.9843 0.422265C58.9468 0.335289 58.8912 0.256746 58.8219 0.191909C58.7526 0.127073 58.6706 0.0769962 58.5807 0.0453687C58.2018 -0.120148 57.9961 0.202453 57.7908 0.446511C57.3564 0.942535 56.93 1.43804 56.4639 1.89453C55.3661 2.98093 54.1651 3.97244 53.162 5.12896C51.9854 6.49052 50.9664 7.98597 49.8919 9.44189C48.939 10.6548 48.0931 11.9478 47.3645 13.3062C46.7006 14.6989 46.1869 16.1575 45.8319 17.6582C45.042 20.6491 44.1733 23.6157 43.3119 26.5829C43.0199 27.5982 42.6406 28.5818 42.2856 29.6524C42.1671 29.1326 42.0639 28.6603 41.9612 28.1964C41.4539 26.4301 41.1883 24.603 41.1714 22.766C41.183 21.8109 41.1036 20.8568 40.9343 19.9169C40.9058 19.7646 40.8439 19.6207 40.7539 19.4942C40.664 19.3682 40.5476 19.2627 40.4132 19.1853C40.0577 19.0435 39.8365 19.3977 39.6868 19.6966C39.5577 19.929 39.4546 20.1741 39.3784 20.4287C38.9758 22.2542 38.5414 24.0722 38.2017 25.9377C38.0118 26.9683 38.0435 28.0388 37.9012 29.0857C37.688 30.6597 37.4039 32.1863 37.1113 33.7365C37.1113 33.8546 37.0563 33.9648 36.9928 34.2326L36.6611 33.7365C36.1474 32.7466 35.5305 31.8125 34.821 30.9507C34.6581 30.7483 34.5369 30.5153 34.4655 30.2659C34.2994 29.8411 34.2126 29.3767 34.0153 28.9755C33.3032 27.3483 32.7603 25.6525 32.3958 23.9151C32.0747 22.6558 31.7271 21.3992 31.353 20.1451C30.7139 17.8664 30.4129 15.5065 30.4605 13.1407C30.4605 12.3537 30.3658 11.4961 30.9742 10.8509C30.5002 10.1108 30.2473 9.97692 29.9552 10.3707C29.1421 11.4081 28.531 12.5878 28.1543 13.8492C27.7734 15.4812 27.6745 17.1658 27.8618 18.831C27.9385 19.8821 27.785 20.9374 27.4115 21.9237C26.7909 23.4855 26.6132 25.1871 26.8983 26.8428C27.293 28.7315 27.6882 30.6202 28.2331 32.4778C28.6516 34.0043 29.2283 35.4839 29.7574 37.0817C28.549 36.2314 27.4433 35.5077 26.3687 34.7207C24.2916 33.1857 21.8426 32.6507 19.3862 32.1546C17.334 31.8352 15.3198 31.3075 13.375 30.5806C12.1269 30.0693 10.8318 29.6677 9.55199 29.2507C9.2991 29.1642 8.81766 29.1484 8.76211 29.2507C8.63408 29.5649 8.59809 29.9091 8.65946 30.2422C8.71871 30.4984 8.83459 30.7377 8.99913 30.9428C9.43508 31.5627 10.0149 32.0676 10.6895 32.4145C11.9455 33.1309 13.2411 33.8388 14.4813 34.6258C16.6266 36.0279 18.9106 37.2066 21.2977 38.1438C23.5261 38.9899 25.5852 40.2239 27.3798 41.7878C29.0511 43.3186 30.5499 45.026 31.8509 46.8798C32.5752 47.7306 33.1762 48.6795 33.6359 49.6973C33.8021 50.1538 34.11 50.555 34.3153 51.0035C34.4401 51.2645 34.5073 51.5486 34.5126 51.838C34.4338 54.8832 33.2254 57.6063 32.0011 60.5656C31.8667 60.1249 31.7874 59.8888 31.7324 59.6526C31.4006 58.2204 31.0848 56.7803 30.7372 55.3476C30.3579 53.7736 29.9473 52.1996 29.56 50.6809C29.4733 50.3267 29.4336 49.9646 29.3151 49.6262C29.1019 48.9968 28.786 48.9335 28.3279 49.39C28.1776 49.5397 27.9803 49.6341 27.83 49.7917C27.6803 49.9488 27.4274 50.1612 27.3956 50.3742C27.2692 51.1612 27.2063 51.9951 27.1507 52.8137C27.0957 53.6323 27.1507 54.2459 27.0481 54.9543C26.6375 58.0159 26.1952 61.0616 25.7609 64.1147C25.7609 64.3904 25.6106 64.6503 25.4842 65.13L25.2868 64.5791C24.6154 62.604 24.5599 60.5261 24.1573 58.5035C23.9451 57.172 23.6388 55.8573 23.2409 54.5685C22.8642 53.5221 22.5685 52.4489 22.3563 51.3578C22.1982 50.2155 21.8146 49.1164 21.2268 48.1233C20.6184 47.2262 20.0263 46.3211 19.41 45.4392C18.399 43.9754 17.3879 42.5195 16.3531 41.0794C15.4495 39.7389 14.1961 38.6699 12.7274 37.9867C12.4232 37.8692 12.1523 37.6805 11.9375 37.4354C11.7011 37.1591 11.3952 36.9499 11.0508 36.8297C10.7069 36.7095 10.3366 36.6821 9.97843 36.7512C9.30705 36.7512 9.015 37.3489 9.3864 37.9393C9.67633 38.3731 10.0128 38.7743 10.3895 39.1353C11.0413 39.6841 11.5783 40.3551 11.9693 41.111C12.2613 41.772 12.5539 42.433 12.7592 43.1178C13.0205 43.7999 13.2343 44.4994 13.3988 45.211C13.7702 47.1471 14.0702 49.0911 14.4495 51.0194C14.8289 52.9476 15.2394 54.6628 15.6108 56.5283C16.1721 59.4676 17.2414 62.2872 18.7704 64.8627C19.2836 65.7441 19.7497 66.6491 20.2708 67.5226C20.5713 68.0265 20.966 68.4751 21.2977 68.9548C22.0315 69.8409 22.5696 70.8703 22.8775 71.9773C23.015 72.7211 23.2213 73.4511 23.4938 74.157C23.8758 75.0294 24.116 75.9566 24.2049 76.9038C24.352 77.7667 24.4181 78.6412 24.4022 79.5168C24.2361 81.348 24.1805 83.1877 24.2361 85.0257C24.1964 85.5413 24.098 86.051 23.944 86.5444C23.8726 86.8591 23.715 87.1585 23.6203 87.4732C23.1542 89.0472 22.704 90.6212 22.2458 92.1952C22.1929 92.3069 22.132 92.4145 22.0638 92.5178C21.9331 92.3154 21.8193 92.1019 21.7241 91.8805C21.2585 90.5584 20.7607 89.2359 20.3581 87.8901C19.6787 85.6235 19.0704 83.3416 18.4228 81.0749C18.2889 80.6016 18.1143 80.1409 17.9011 79.6976C17.0562 77.919 16.0923 76.1954 15.3659 74.3694C14.896 73.0642 14.2331 71.836 13.3988 70.7259C11.6534 68.5536 9.82871 66.4446 8.03572 64.3119C7.68019 63.887 7.36434 63.4147 6.96914 63.0288C5.81578 61.9113 4.59945 60.8176 3.45403 59.7311C2.72763 59.0622 1.98483 58.417 1.24256 57.7797C0.902898 57.4882 0.515635 57.5278 0.452677 57.882C0.294487 58.7396 -0.218693 59.5424 0.105093 60.4712C0.201911 60.9203 0.270689 61.3747 0.310369 61.8328C0.532045 63.2771 0.851041 64.7046 1.26635 66.1062C1.88641 67.6528 2.60913 69.1567 3.43023 70.6078C4.14922 71.9694 5.01002 73.244 5.72107 74.6214C6.87443 76.9823 7.97223 79.3433 9.00707 81.7755C9.5938 83.3516 10.2689 84.894 11.0291 86.3952C11.582 87.363 12.0084 88.402 12.5459 89.3698C13.057 90.4356 13.6818 91.444 14.4098 92.376C15.8187 94.028 17.0673 95.8097 18.1381 97.6962C19.4354 99.8163 19.9205 102.331 19.5047 104.779C19.4365 105.167 19.3915 105.559 19.3703 105.952C19.2994 108.502 19.2518 111.059 19.173 113.61C19.1254 115.349 19.0227 117.08 18.9598 118.82C18.9481 119.23 19.0831 119.632 19.3402 119.954C19.5978 120.275 19.9613 120.495 20.366 120.574C22.0876 120.574 23.7938 119.331 23.5256 117.505C23.407 116.718 23.3277 115.876 23.2568 115.058C23.1499 114.275 23.1102 113.486 23.1383 112.697C23.2568 111.264 23.5097 109.84 23.6912 108.415C23.77 107.793 23.8256 107.18 23.8965 106.558C24.1493 104.417 24.1493 102.222 25.4762 100.325C26.0005 99.3087 26.6169 98.342 27.3168 97.4364C28.8786 95.8502 30.5409 94.3648 32.2932 92.9901C34.0624 91.5737 35.7792 90.0914 37.4431 88.5432C39.0726 87.1617 40.5788 85.6425 41.9459 84.0026C42.3358 83.4576 42.7691 82.9447 43.241 82.4676H43.2331ZM38.3832 80.6026L38.4308 80.4846C39.3472 79.5479 40.2788 78.6354 41.1634 77.6829C42.8464 75.8569 44.7182 74.2123 46.2821 72.2762C47.1587 71.1903 48.2412 70.2773 49.2205 69.2858L49.4258 69.4508C48.7544 70.3875 48.0989 71.3316 47.4275 72.2604C46.7561 73.1892 46.2741 73.9762 45.6424 74.7632C44.8526 75.7078 44.0627 76.597 43.2728 77.5253C42.4829 78.4541 41.8348 79.2964 41.1084 80.1778C40.8005 80.5552 40.4841 80.9648 39.8842 80.532C39.6868 81.0512 38.9916 81.319 39.3784 81.9405C39.0467 82.2552 38.8652 82.7828 38.1779 82.7828C38.3832 82.3732 38.5414 81.9958 38.7308 81.6806C38.7911 81.59 38.8324 81.4882 38.8514 81.3807C38.8699 81.2737 38.8662 81.1635 38.8403 81.0576C38.8144 80.9521 38.7668 80.8525 38.7001 80.7661C38.634 80.6796 38.5499 80.6079 38.4541 80.5552L38.3911 80.6264C38.0991 81.3422 37.8065 82.0507 37.5065 82.7591C37.5065 82.8139 37.3404 82.8139 37.2536 82.8456L37.214 82.9241C37.1193 83.302 37.0246 83.7111 36.9378 84.0653L36.7008 83.971C36.8743 83.6246 37.0405 83.2704 37.214 82.9241C37.214 82.9241 37.214 82.8456 37.214 82.8139C37.0955 81.7908 37.7986 81.232 38.3911 80.6026H38.3832ZM35.603 83.6563C35.7294 83.3727 36.0611 83.1761 36.2982 82.9478L36.5034 83.0896L35.2078 85.7811L34.9078 85.6868C35.1369 84.9941 35.3263 84.3015 35.6109 83.6563H35.603ZM34.4967 84.4433C34.3655 85.6045 33.9206 86.7088 33.2095 87.6387C33.3121 87.3314 33.4068 87.0167 33.5253 86.7099C33.6439 86.4031 33.8021 86.0331 33.3598 85.7184L34.4967 84.4433ZM44.5208 60.9435C46.827 59.1018 48.9364 57.0086 51.2113 55.1431C52.5689 54.0092 53.8366 52.7726 55.0026 51.4442C55.4687 50.9171 55.8713 50.3267 56.3692 49.8154C56.0226 50.9603 55.3957 52.0019 54.5444 52.8453C53.7545 53.6323 52.8779 54.4193 52.0563 55.2063C51.5822 55.6628 51.1241 56.1267 50.6738 56.599C48.7623 58.6136 46.8588 60.6441 44.9552 62.6588C44.8282 62.7679 44.6933 62.8681 44.5521 62.9582C44.5521 62.5882 44.5521 62.352 44.5521 61.9351C43.4151 62.8401 43.4151 64.3588 42.2221 65.3192C42.712 63.5639 43.1067 62.0689 44.5208 60.9435ZM39.1181 66.035C39.4292 65.7483 39.7619 65.4847 40.1132 65.248C40.1132 65.248 40.1132 65.1932 40.1132 65.1616C40.5947 64.4958 41.201 63.9292 41.8983 63.4932C41.6623 65.1152 40.883 66.6101 39.6868 67.735C39.8921 67.1135 40.0894 66.5469 40.2788 65.9723C40.3735 65.6655 40.5079 65.3429 40.1132 65.1853L40.0656 65.2248C39.5445 66.5073 39.0308 67.7825 38.4858 69.0655C38.307 69.5293 37.9832 69.9241 37.5616 70.1909C37.57 69.6369 37.7224 69.0945 38.0039 68.6169C38.1462 68.3254 38.4229 67.9712 38.3435 67.7271C38.17 66.8932 38.6753 66.4915 39.1181 66.035ZM38.3282 70.9146C39.3942 69.8367 40.3185 68.6559 41.2978 67.5147C41.7718 66.9717 42.0485 66.1847 43.0199 66.2949C43.1384 66.2949 43.3596 66.0039 43.4225 65.8068C43.6156 65.2069 43.9579 64.6656 44.4182 64.2328C45.7213 62.887 47.0249 61.5413 48.2883 60.1644C49.5522 58.7871 50.7606 57.3391 52.1039 55.9538C52.7435 55.269 53.4937 54.6866 54.2995 53.9549C54.2524 54.2064 54.2995 54.3244 54.2127 54.3798C52.6806 56.182 51.7954 58.3701 50.6109 60.369C49.4718 62.4785 48.0793 64.4421 46.4641 66.2164C45.7848 66.8932 44.9949 67.491 44.3076 68.1367C42.6252 69.7107 40.974 71.2847 39.2678 72.8587C38.2176 73.7716 37.0955 74.6214 35.9977 75.5502C34.5919 76.7225 33.2016 77.9111 31.7086 79.0207C32.6487 77.6987 33.6677 76.4236 34.5205 75.0858C35.5157 73.4016 36.9928 72.2367 38.2964 70.9146H38.3282ZM29.0939 79.3354C29.7024 78.2575 30.4764 77.2739 31.1795 76.2428C32.3863 74.4105 33.6888 72.6425 35.0813 70.9463C35.8712 70.0254 36.6611 69.1203 37.451 68.2073L37.5616 68.3017C37.1748 69.3406 36.7717 70.3796 36.4008 71.4496C36.3304 71.5946 36.2278 71.7211 36.1003 71.8197C34.8051 72.8033 34.0624 74.2123 33.146 75.4948C32.1688 77.1205 31.0843 78.6797 29.8997 80.162C29.2204 80.949 28.6437 81.736 28.0358 82.5778C27.1227 83.7928 26.592 85.2498 26.5111 86.7647C26.4756 87.0325 26.4148 87.2955 26.3296 87.5517C25.7921 89.6534 25.2471 91.7545 24.7498 93.8477C24.4319 95.1771 23.9377 96.458 23.2806 97.6572C23.2256 97.478 23.1912 97.293 23.178 97.1059C23.3436 95.6109 23.5097 94.1155 23.707 92.62C23.7779 92.0692 23.952 91.5341 24.0705 90.9833C24.3467 89.7003 24.5996 88.4178 24.8604 87.1348C24.9868 86.5839 24.9551 85.9466 25.6503 85.6472C25.8238 85.5766 25.9265 85.293 26.0291 85.0885C27.0481 83.1603 28.0041 81.2168 29.0627 79.3354H29.0939ZM54.718 37.7738C55.1449 36.9868 55.5952 36.1998 56.0375 35.4128C56.2745 34.98 56.6771 34.9489 57.1749 34.9094C56.3851 36.1371 55.5952 37.2704 54.8053 38.4506L54.6 38.3562C54.6143 38.1581 54.6545 37.9625 54.718 37.7738ZM47.7042 39.8359C48.3518 39.3478 49.0702 38.9703 49.7342 38.5608L49.9474 38.254L51.4875 37.5534L51.5351 37.4828H51.5822C52.7636 36.642 54.0662 35.9842 55.4449 35.5309C55.2238 35.9404 55.1052 36.2156 54.9396 36.4597C54.1714 37.3589 53.4868 38.3257 52.8938 39.3478C52.8541 39.4506 52.6329 39.4737 52.3959 39.576C52.5382 38.4901 53.5731 37.9235 53.5884 36.8924C52.3721 37.8212 51.7954 39.2534 50.8161 40.3556L50.6188 40.2528C50.832 39.8438 51.0294 39.4658 51.2426 39.0252C51.4558 38.5845 51.6616 38.2935 51.8431 37.9077C52.0245 37.5223 51.8034 37.5223 51.5902 37.4354H51.5272C51.1717 38.0178 50.8082 38.6003 50.4448 39.1749C50.0818 39.7494 49.7342 40.363 49.3628 40.9223C49.284 41.0398 49.1337 41.1031 48.857 41.0873C49.1734 40.5285 49.4575 39.9619 49.7972 39.4268C49.9374 39.2677 50.0278 39.071 50.0569 38.8612C50.0866 38.6514 50.0538 38.4374 49.9633 38.2461C49.9633 38.3331 49.9077 38.4506 49.8448 38.4901L49.7342 38.5608C49.2914 39.1828 48.8491 39.7969 48.4227 40.4342C48.1465 40.8353 47.9254 41.276 47.6328 41.6777C47.4889 41.8058 47.3265 41.9117 47.1508 41.9924L47.009 41.8506C47.1905 41.4652 47.3799 41.0636 47.5619 40.7014C47.5238 40.6561 47.4815 40.6139 47.4355 40.576C47.2556 40.6571 47.0884 40.7631 46.9376 40.8907C46.6059 41.2839 46.3059 41.6777 45.99 42.1342C45.7705 42.394 45.4975 42.6038 45.1896 42.7493C44.8816 42.8948 44.5457 42.9718 44.205 42.976C44.2918 42.7714 44.2997 42.6217 44.3865 42.559C45.4525 41.646 46.5747 40.7172 47.7042 39.8517V39.8359ZM47.3645 15.1085C48.4343 12.7106 49.8644 10.4898 51.606 8.52101C52.3959 7.52949 53.1858 6.47524 53.9757 5.52272C54.9709 4.39731 56.0533 3.36626 57.1353 2.28829L57.3723 2.42956C57.1802 3.12905 56.9432 3.81536 56.6612 4.48376C55.2687 7.35289 54.209 10.3712 53.5017 13.4791C53.3832 13.991 53.399 14.5339 53.2567 15.0531C52.925 16.2497 52.5774 17.4141 52.143 18.6107C51.3828 20.6781 50.832 22.8161 50.5003 24.9931C50.2982 25.9509 50.0342 26.8945 49.7104 27.8185C49.6321 28.0684 49.5369 28.3129 49.4258 28.5502C48.9755 29.6049 48.4941 30.6518 48.0671 31.6981C47.6407 32.745 47.1587 33.8388 46.8111 34.9331C46.399 36.2878 45.7869 37.5745 44.9949 38.75C44.4732 39.4975 44.0865 40.324 43.6204 41.111C43.4855 41.3118 43.3352 41.5011 43.1702 41.6777C43.0792 41.4505 43.0373 41.2075 43.0469 40.9634C43.0564 40.7193 43.1173 40.48 43.2252 40.2607C43.9362 37.7738 44.7261 35.3026 45.3578 32.7925C45.8081 30.9823 45.99 29.1089 46.4006 27.2835C46.6376 26.2366 47.0799 25.2372 47.4196 24.214C47.7285 23.3896 47.9925 22.5488 48.2094 21.6954C48.6867 19.6407 49.3856 17.6429 50.295 15.7379C50.8082 14.6678 51.314 13.6051 51.8748 12.5899C52.4356 11.5746 52.8938 10.7407 53.3673 9.81984C53.5731 9.44189 53.7546 9.03284 53.944 8.67071C54.3471 7.88371 54.7338 7.03399 55.1529 6.20745C55.256 5.95075 55.3433 5.68771 55.4132 5.42046C55.1777 5.43364 54.9513 5.51534 54.7619 5.65503C54.5725 5.79471 54.428 5.98712 54.3471 6.20745C53.5572 7.78145 52.7673 9.35545 51.9774 10.9294C51.1002 12.7633 50.3104 14.6441 49.4258 16.478C47.846 19.6887 47.0561 23.1751 45.8477 26.4965C45.5557 27.5049 45.352 28.5375 45.2393 29.5812C44.9949 30.8642 44.7811 32.1546 44.497 33.4377C44.1653 34.941 43.7622 36.4359 43.3834 37.9314C43.3352 38.0742 43.2775 38.2139 43.2093 38.3483L43.0596 38.2856C43.1606 37.5476 43.2104 36.8033 43.2093 36.0585C43.1564 35.2436 43.0326 34.4355 42.8384 33.6422C42.6644 32.8409 42.6644 32.0118 42.8384 31.2105C43.7775 26.9756 44.9319 22.7913 46.298 18.6734C46.5747 17.4932 46.8588 16.2655 47.3645 15.1085ZM40.0656 45.0144C40.0656 44.7313 40.6502 44.3929 41.0058 44.1251C41.4264 43.8199 41.8639 43.5384 42.3168 43.2833C42.6739 43.0935 43.04 42.9227 43.4151 42.7714C43.3077 43.2801 43.095 43.7603 42.7903 44.182C42.4855 44.6032 42.0956 44.9569 41.6454 45.2189L41.1872 44.9042C40.5947 45.1008 40.4529 45.6443 40.1603 46.0691C39.8683 46.494 39.8127 46.9979 39.0942 47.1471C39.2048 46.8878 39.2916 46.746 39.3392 46.5884C39.5207 46.0533 40.0577 45.7149 40.0259 45.0302L40.0656 45.0144ZM38.5647 29.3609C38.7705 27.7479 38.8731 26.1185 39.0229 24.4971C39.0879 23.1229 39.4545 21.7798 40.0973 20.5621C40.1645 20.7329 40.2148 20.9095 40.2476 21.0898C40.3265 22.3016 40.3815 23.5056 40.4608 24.7174C40.4735 25.2066 40.5259 25.6937 40.6185 26.1739C41.2296 28.9887 41.5629 31.8563 41.6137 34.736C41.5935 34.8667 41.5935 34.9995 41.6137 35.1297C42.2221 36.8924 41.938 38.6715 41.8036 40.4658C41.8004 41.0715 41.6771 41.6708 41.4401 42.2285C41.2819 42.462 41.0931 42.6734 40.8793 42.8579L40.7211 42.7477C40.7211 42.4251 40.7687 42.1104 40.8163 41.7957C40.9343 40.294 40.7846 38.7832 40.3735 37.3331C40.2079 36.5461 40.263 35.7043 40.1445 34.8936C39.9148 33.1746 39.8064 31.4414 39.8207 29.7072C39.8207 29.6524 39.7577 29.6049 39.655 29.4631C39.581 29.6271 39.5175 29.7952 39.4651 29.9671C38.9758 31.9185 39.4651 33.9021 39.4651 35.8303C39.5096 36.9731 39.6656 38.109 39.9312 39.2223C40.1323 39.8786 40.1323 40.5802 39.9312 41.237C39.7101 40.3867 39.5207 39.5291 39.244 38.6947C39.0456 38.0452 38.7811 37.4174 38.4541 36.8218C37.9282 35.9789 37.7155 34.979 37.8541 33.9964C38.0435 32.4619 38.3673 30.919 38.5647 29.3609ZM34.3861 32.336C35.4051 34.2326 36.4088 36.145 37.451 38.0416C38.5324 39.761 39.036 41.7789 38.889 43.8025L37.7668 44.8098C37.5769 43.8932 37.3399 42.987 37.0563 42.0946C36.6532 40.9929 36.1321 39.9302 35.6501 38.8523C35.1237 37.6246 34.5734 36.4022 33.9994 35.1845C33.8719 34.9194 33.801 34.6311 33.7899 34.3375C33.7793 34.0438 33.829 33.7508 33.9359 33.4772C34.047 33.0797 34.1258 32.6744 34.1729 32.2648C34.2676 32.2648 34.3629 32.2648 34.3861 32.336ZM33.5963 30.3682C33.7544 30.7303 33.873 30.9981 33.9126 31.1083L33.1227 33.4693C32.554 32.7924 33.0513 32.3201 33.1227 31.8399C33.1217 31.306 33.3026 30.7867 33.6359 30.3682H33.5963ZM32.7984 28.3298C33.0042 28.7394 33.2174 29.1168 33.4227 29.5654C32.3482 30.0377 32.8778 31.2496 32.1191 31.9264C32.1493 30.7425 32.2948 29.5643 32.554 28.4089L32.7984 28.3298ZM30.1764 33.3902C29.5918 31.9285 29.232 30.3872 29.1098 28.8179C29.0627 27.9761 28.8257 27.1417 28.7072 26.2993C28.5649 25.4923 28.4702 24.6779 28.4226 23.8598C28.3998 23.2441 28.4718 22.6284 28.6358 22.0338C29.1929 19.8716 29.3585 17.6276 29.1257 15.4074C29.0368 14.6704 29.1659 13.9235 29.4971 13.2588L29.6944 13.2983C29.7442 13.6183 29.7627 13.9425 29.7495 14.2661C29.5283 16.2729 30.097 18.2011 30.5393 20.0977C30.9822 21.9948 31.5271 24.0332 32.0403 25.9925C32.1826 26.5355 32.38 27.0552 32.5461 27.5665C31.7562 28.3535 31.8826 29.3767 31.4874 30.3445C31.2112 30.0772 31.061 29.8885 31.1636 29.4948C31.3768 28.7078 31.5112 27.9208 31.6768 27.1338C31.6858 26.9661 31.6858 26.798 31.6768 26.6298C31.5192 26.6298 31.3769 26.6298 31.353 26.7168C30.7134 28.0547 30.105 29.3767 30.8319 30.9111C31.3165 31.986 31.8953 33.0154 32.5619 33.9885C33.127 34.8609 33.6111 35.7828 34.0073 36.7432C34.7972 38.5455 35.5871 40.3556 36.2902 42.1811C36.5066 42.7904 36.6912 43.4103 36.8431 44.0387L36.6849 44.1725C36.5114 44.0856 36.2585 44.0466 36.1717 43.9048C35.8299 43.3418 35.5189 42.7614 35.2395 42.1652C34.647 41.0356 33.9232 39.9787 33.083 39.0173C32.5487 38.3088 32.0858 37.5497 31.7006 36.7512C31.1261 35.6727 30.6166 34.561 30.1764 33.4218V33.3902ZM24.0229 35.7512C23.4303 35.3421 23.707 34.736 23.5018 34.0829C24.2837 34.4687 24.3154 34.6258 24.0229 35.767V35.7512ZM35.2395 49.5002C35.0279 48.749 34.8565 47.9873 34.7258 47.2183C34.639 47.2652 34.4496 47.3437 34.1497 47.4776C33.4624 46.6906 32.7355 45.8172 32.0403 44.9516C31.2504 43.9522 30.5161 42.8974 29.6706 41.9296C28.4443 40.6408 26.9867 39.5918 25.3736 38.8365C22.7748 37.428 20.1369 36.0896 17.4747 34.736C17.0324 34.5077 16.5584 34.3664 16.1002 34.1772C13.939 33.211 11.9 31.9933 10.026 30.5495C9.94191 30.4889 9.87209 30.4098 9.82288 30.3181C9.77368 30.2269 9.74616 30.1257 9.74193 30.0219C10.4212 30.2976 11.1159 30.5495 11.7952 30.8089C14.3765 31.8225 17.0588 32.5584 19.7973 33.0049L20.3813 33.1151C21.4003 33.3354 21.3612 33.3433 21.4559 34.3664C21.4956 34.7913 21.3691 35.3896 22.1823 35.6257C22.1823 34.9642 22.1823 34.3823 22.1823 33.8235C22.5695 33.6422 22.8537 33.7603 22.7907 34.0829C22.5457 35.3896 23.415 35.9715 24.3705 36.5308C25.8598 37.4227 27.2618 38.4532 28.5569 39.6076C28.667 39.6799 28.7723 39.7589 28.8728 39.8438C30.8478 41.9924 33.0201 43.9675 34.6549 46.4075C34.9459 46.8503 35.2099 47.31 35.4448 47.7849C35.603 48.0917 35.7765 48.1702 36.0844 47.8635C35.3919 46.0776 34.3131 44.4656 32.9249 43.1415C32.0244 42.2285 31.1716 41.276 30.2314 40.4105C29.1416 39.4268 27.9723 38.5139 26.8348 37.5772C26.5047 37.3036 26.1534 37.0558 25.7847 36.8376C25.4434 36.6673 25.1752 36.3801 25.0302 36.0285C24.8847 35.6774 24.872 35.2852 24.9948 34.9252C25.7312 35.2863 26.4481 35.6853 27.1433 36.1212C28.1067 36.7981 29.023 37.5461 29.9314 38.3014C30.2817 38.5924 30.5949 38.9255 30.8637 39.293C31.1795 39.7099 31.6536 39.8122 32.0403 40.0799C32.6995 40.5686 33.2846 41.149 33.7783 41.8036C34.6787 42.9681 35.5157 44.1646 36.3373 45.4081C36.4918 45.7328 36.6008 46.077 36.6611 46.4313C36.3532 46.7618 35.9506 47.0686 36.3135 47.5957C36.677 48.1233 36.9061 48.0759 37.3092 47.7454C37.4912 47.5593 37.6552 47.3564 37.7986 47.1392C38.1827 46.6158 38.6371 46.1466 39.1493 45.7465C38.8842 46.0965 38.6837 46.4908 38.5573 46.911C38.443 47.7359 38.0531 48.4981 37.451 49.0753C37.214 49.3431 37.0801 49.642 37.6092 49.8623C38.1859 49.2799 38.7625 48.6742 39.3704 48.0996C40.0386 47.4402 40.7402 46.815 41.4719 46.2262C42.5718 45.3465 43.7188 44.5268 44.9076 43.7709C45.926 43.1794 46.9815 42.6539 48.0671 42.1969C49.8601 41.4099 51.6769 40.6229 53.4625 39.7969C54.6709 39.2302 55.8322 38.5608 57.0406 37.9551C57.6014 37.6715 58.186 37.4512 58.7388 37.1681C60.0816 36.4834 61.4482 36.8692 62.8068 37.0579C63.3914 37.1365 63.9681 37.3489 64.4575 36.7744L65.2474 37.4828C65.3976 37.3964 65.5478 37.3568 65.6108 37.2625C65.7415 37.0121 65.9473 36.8081 66.1986 36.6784C66.4504 36.5487 66.7361 36.5002 67.0171 36.5382C67.0795 36.5503 67.1441 36.5503 67.2065 36.5382C69.5761 35.7512 72.096 35.476 74.4022 34.445C75.5953 33.91 76.8513 33.493 78.0596 32.997C78.4554 32.8109 78.8384 32.5979 79.205 32.3597C79.205 32.2964 79.205 32.2258 79.1416 32.1546C78.976 32.1546 78.7786 32.0213 78.6363 32.0682C76.6931 32.7687 74.6869 33.241 72.8383 34.2563C72.3897 34.4634 71.9135 34.6068 71.4247 34.6811C70.166 34.9489 68.91 35.2109 67.6567 35.4681C67.4752 35.5077 67.2853 35.4681 66.9774 35.5309L67.8699 34.0908C67.8149 34.0359 67.7673 33.9727 67.7117 33.91C67.5234 33.9621 67.3445 34.0444 67.1826 34.154C66.7562 34.5631 66.3928 35.0275 65.9584 35.4365C65.6902 35.6532 65.4045 35.8477 65.1056 36.019C65.1056 35.106 66.1716 34.9094 65.9902 33.9964C65.787 34.0386 65.5939 34.1187 65.4214 34.2326C64.9553 34.689 64.521 35.1845 64.0628 35.6568C63.7469 35.9874 63.4306 36.3574 62.783 36.0032L63.7861 34.6969C63.4782 34.3585 63.257 34.5077 63.0597 34.6969C62.6952 35.0253 62.3624 35.3859 62.064 35.7749C61.8587 36.0664 61.6614 36.2235 61.3376 36.1292C60.0419 35.7438 58.9679 36.3026 57.8781 36.9161C57.3881 37.176 56.9141 37.4512 56.4321 37.7031L56.2978 37.5382L58.004 34.4608C58.7933 34.2036 59.598 33.9959 60.4133 33.8388C62.4978 33.4614 64.6247 33.377 66.7324 33.5874C68.0694 33.7455 69.4174 33.7824 70.7607 33.6975C70.8236 33.7049 70.8877 33.7049 70.9506 33.6975C73.0277 33.1699 75.1133 32.6981 77.1592 32.1235C78.7389 31.667 80.2081 31.1552 81.8985 31.4151C82.8937 31.5727 83.9126 31.5727 84.9792 31.8009C84.7507 31.938 84.5099 32.0539 84.2602 32.1467C82.4154 32.744 80.6155 33.4698 78.8733 34.319C77.2936 35.0116 75.6344 35.6099 74.0076 36.2393C73.8256 36.3179 73.6282 36.3574 73.4547 36.4518C71.9643 37.2514 70.357 37.8117 68.6916 38.1122C67.535 38.4859 66.4012 38.925 65.295 39.4268C63.2411 40.1116 61.1794 40.7963 59.0864 41.3313C58.1103 41.4726 57.1263 41.5459 56.1401 41.5517C55.3502 41.6381 54.5603 41.8427 53.8255 41.9924L51.2267 42.4963C49.0417 42.996 46.9418 43.8125 44.9949 44.92C43.6606 45.6269 42.4141 46.4882 41.2819 47.4855C40.592 48.029 40.0037 48.69 39.5445 49.4375C39.3281 49.7943 39.208 50.2013 39.1969 50.6177C39.2149 50.9735 39.1265 51.3267 38.944 51.6329C37.561 53.9122 36.4124 56.3249 35.5157 58.834C35.0655 59.9199 34.5374 60.972 33.9359 61.982C33.7359 62.3952 33.5645 62.8211 33.4227 63.2571C32.8889 64.9866 32.1715 66.6539 31.2821 68.231C31.0144 66.9717 31.2107 65.6587 31.835 64.5322C32.0329 64.2866 32.2075 64.023 32.3561 63.7452C32.4826 63.4379 32.5223 63.1153 32.9804 63.1153C33.3121 63.1153 33.4624 62.887 33.4936 62.5175C33.5566 62.0315 33.6624 61.5524 33.81 61.0848C34.1571 59.7549 34.5126 58.4249 34.8523 57.095C34.8523 56.9137 34.8052 56.7012 34.8523 56.5125C34.8332 55.9548 34.9877 55.405 35.2946 54.9385C35.4686 54.6265 35.5512 54.2717 35.5316 53.9154C35.5009 53.441 35.4956 52.9655 35.5157 52.4911C35.6781 51.4922 35.5829 50.4685 35.2395 49.516V49.5002ZM22.6881 55.8752C23.1066 57.9289 23.4779 59.991 23.8573 62.0452C23.8573 62.2418 23.8573 62.4385 23.9361 62.6277L25.2868 68.5536C25.3133 68.6469 25.318 68.7455 25.3006 68.8409C25.2826 68.9369 25.2429 69.027 25.1842 69.1045C24.7181 67.8689 24.2678 66.6254 23.7938 65.3819C23.533 64.713 23.2568 64.052 22.9568 63.3989C22.5299 62.478 22.0796 61.565 21.6374 60.652C21.5501 60.4776 21.504 60.2846 21.504 60.0896C21.504 59.894 21.5501 59.7016 21.6374 59.5266C21.8352 59.0232 21.9611 58.4956 22.1511 57.8899C21.3612 57.8899 21.4797 58.7792 20.8083 58.9442C20.7131 58.6136 20.4766 58.2673 20.5395 57.9843C20.8792 56.5283 21.2898 55.0961 21.7241 53.4668C22.2066 54.1958 22.5347 55.0155 22.6881 55.8752ZM21.1083 50.9171L21.3771 50.964C21.6215 52.8216 20.5872 54.3956 20.1369 56.2447C19.9274 56.1256 19.7692 55.9337 19.6925 55.706C19.6153 55.4788 19.6243 55.2306 19.7179 55.0092C20.192 53.6502 20.6554 52.2839 21.1083 50.9092V50.9171ZM25.445 79.7682C25.4249 79.4092 25.4249 79.0492 25.445 78.6902C25.4498 77.4779 25.3037 76.2702 25.0101 75.0937C24.7837 73.8786 24.434 72.6895 23.9678 71.544C23.4462 70.4033 22.8775 69.2542 22.3087 68.1836C21.1559 66.1299 19.8999 64.1305 18.7624 62.061C17.4895 59.7607 16.6494 57.2484 16.2822 54.6476C16.1002 53.3171 15.7135 52.0267 15.4923 50.7126C15.1759 49.0674 14.9156 47.4228 14.6072 45.7776C14.1829 43.2074 13.2337 40.7515 11.819 38.5608C11.7444 38.4021 11.6862 38.2361 11.6455 38.0653C12.8407 38.5486 13.9062 39.303 14.7574 40.2687C15.8081 41.6144 16.7636 43.0392 17.7117 44.4556C18.6598 45.8725 19.5285 47.2652 20.421 48.6742C20.6215 48.9752 20.793 49.2936 20.9342 49.6262C21.003 49.8064 21.003 50.0052 20.9342 50.1849C20.3502 51.4679 19.7179 52.7272 19.1254 54.0335C18.9958 53.9212 18.9063 53.7699 18.8704 53.6023C18.8349 53.4346 18.855 53.2602 18.928 53.1047C19.165 52.4278 19.3703 51.7278 19.5602 51.0352C19.5925 50.7368 19.5925 50.4358 19.5602 50.138C18.7704 50.6809 18.9518 51.5781 18.2408 52.0188L17.2932 49.6578C16.8113 50.0278 17.0245 50.4448 17.1192 50.7047C17.4038 51.6176 17.7434 52.5069 18.0752 53.3962C18.4857 54.4979 18.9836 55.5758 19.3074 56.7012C19.8322 58.4281 20.5253 60.0991 21.3771 61.691C22.5378 64.052 23.3753 66.4683 24.3075 68.892C24.6625 69.8367 24.8207 70.8519 25.0974 71.8355C25.263 72.4649 25.4604 73.0869 25.6186 73.7242C25.7011 74.0384 25.7487 74.3599 25.7609 74.6846C25.7132 75.4263 25.7132 76.17 25.7609 76.9117C25.9481 78.2095 25.873 79.531 25.5397 80.7993C25.5159 80.4529 25.4683 80.1066 25.445 79.7608V79.7682ZM28.1623 73.2835C28.2649 72.4101 28.4384 71.544 28.5411 70.6627C28.6993 69.3011 28.8257 67.9401 28.9754 66.5785C29.0077 66.2891 29.0606 66.0023 29.1336 65.7203C29.4876 64.0451 29.4743 62.3135 29.0939 60.6441C29.0024 60.7785 28.9358 60.9277 28.8966 61.0848C28.8178 62.1 28.7702 63.1074 28.7151 64.1226C28.7151 64.4847 28.7151 64.8469 28.6596 65.2011C28.2803 67.5621 27.8697 69.9858 27.5141 72.3785C27.4194 73.0078 27.3798 73.6456 27.3168 74.2829C27.3168 74.7394 27.3168 75.1959 27.2613 75.6445H26.993C26.9539 75.4115 26.9629 75.1727 27.0184 74.9429C27.074 74.7131 27.1756 74.4964 27.3168 74.3067V74.2513C27.2539 74.1728 27.1353 74.0942 27.1433 74.0231C27.3406 71.5129 27.5856 69.0101 27.7433 66.4994C27.8459 65.0277 27.7909 63.556 27.8538 62.0848C27.9173 60.7464 28.0512 59.4086 28.1543 58.0628C28.2093 57.2758 28.2802 56.5753 28.3199 55.8278C28.3908 54.5843 28.4226 53.3329 28.494 52.0973C28.521 51.8454 28.6321 51.6103 28.8098 51.4284C29.0389 52.2939 29.2839 53.1521 29.4971 54.0255C30.0023 56.1193 30.5081 58.2125 30.9742 60.3215C31.3567 61.7595 31.3102 63.2776 30.8398 64.6893C30.342 66.0118 30.4446 67.3887 30.279 68.7502C30.279 69.0728 30.2076 69.396 30.1447 69.7186C29.8918 71.1033 29.6468 72.4886 29.3548 73.866C29.1733 74.7315 28.9125 75.5818 28.6754 76.5021C29.3627 76.9196 29.1257 77.51 28.8178 78.0761C28.1935 79.1863 27.538 80.2879 26.819 81.5314C26.6941 80.5204 26.8386 79.4941 27.238 78.5564C27.5718 77.7356 27.7999 76.8764 27.9173 75.9987C28.067 75.1095 28.0591 74.1807 28.1623 73.2756V73.2835ZM12.2931 70.8282C12.4068 71.0359 12.4814 71.2625 12.5142 71.4971C12.4095 72.6056 12.0672 73.6794 11.5111 74.6451C11.3138 73.3072 12.0322 72.1581 12.0561 70.8677L12.2931 70.8282ZM11.5899 70.5135C11.3138 71.4576 11.0212 72.3943 10.7292 73.331C10.7292 73.4332 10.5631 73.5039 10.4287 73.6457C10.3419 73.4722 10.2234 73.3541 10.2392 73.2677C10.4763 71.9852 10.7212 70.718 10.9895 69.3327C11.4873 69.6474 11.7481 69.9779 11.5899 70.4898V70.5135ZM15.3579 90.3144C14.1728 88.3941 13.2486 86.3082 12.1984 84.2936C12.0153 83.8392 11.8016 83.3975 11.5582 82.9715C10.271 81.1456 9.74934 78.9891 8.91236 76.9665C8.15581 75.2302 7.23787 73.5676 6.17128 72.0005C5.30256 70.5999 4.38623 69.2542 3.51751 67.8452C3.23288 67.3434 2.99533 66.8162 2.80646 66.2712C2.3721 65.1068 2.01658 63.9102 1.54254 62.7616C1.15897 61.487 1.01452 60.1528 1.1161 58.8261C5.06555 61.5729 7.68018 65.2876 10.5948 68.6717L9.50491 72.4022C9.36312 71.7148 9.39806 71.0026 9.60756 70.3321C9.68639 69.6949 9.77313 69.0576 9.86783 68.3728C9.44934 68.2706 9.32293 68.4514 9.25204 68.7977C9.133 69.4898 8.95046 70.1693 8.70709 70.8282C8.49282 70.1788 8.50921 69.4756 8.75417 68.8372C8.88061 68.5062 8.95205 68.2152 8.44627 67.987C8.24893 68.5615 8.07486 69.0887 7.8225 69.8446C7.0797 68.7898 6.51096 67.9474 5.87133 67.0582C5.49993 67.2632 5.55545 67.6407 5.76073 67.9791C6.08451 68.5062 6.47921 68.9864 6.83474 69.4982C7.33259 70.222 7.8225 70.9621 8.31982 71.6858C8.81766 72.4101 9.25995 73.0948 9.78901 73.7479C10.3181 74.401 11.1159 75.1722 11.7243 75.9281C12.0307 76.3108 12.2708 76.7414 12.4354 77.2027C13.083 78.8868 13.6914 80.5868 14.2993 82.2789C14.7812 83.4628 15.0796 84.7126 15.1839 85.9856C15.3098 86.9529 15.6124 87.8891 16.0764 88.7483C16.7954 90.3223 17.6011 91.9432 18.3989 93.5251C18.7762 94.1097 19.0434 94.758 19.1889 95.4375C17.8144 93.6511 16.4398 92.0771 15.3579 90.2907V90.3144ZM22.159 118.568C22.0675 118.843 21.8823 119.077 21.6358 119.231C21.3892 119.385 21.0966 119.448 20.8083 119.41C20.6972 119.378 20.5951 119.322 20.5083 119.247C20.4215 119.171 20.3522 119.077 20.3057 118.973C20.2591 118.868 20.2359 118.754 20.238 118.639C20.2401 118.524 20.2676 118.411 20.3184 118.308C20.4189 118.063 20.6073 117.865 20.8469 117.752C21.0866 117.638 21.3601 117.617 21.6136 117.694C22.0876 117.843 22.2929 118.174 22.159 118.544V118.568ZM22.5696 108.235C22.3405 109.855 22.0796 111.485 21.9532 113.114C21.8664 114.31 21.9532 115.514 22.0008 116.773L20.421 116.938C20.3851 116.707 20.3692 116.472 20.3734 116.238C20.4687 115.254 20.6104 114.279 20.7057 113.295C20.9268 111.044 21.148 108.793 21.3294 106.542C21.377 106.031 21.2109 105.496 21.2427 104.968C21.2977 103.976 21.4321 102.985 21.5109 101.985C21.5485 101.667 21.5294 101.345 21.4559 101.033C21.2818 100.411 21.0295 99.7979 20.8316 99.1838C20.5274 98.4579 20.3665 97.6804 20.3581 96.8934C20.3443 96.37 20.2375 95.8529 20.0417 95.3669C19.8174 94.6447 19.5539 93.9352 19.2518 93.242C18.8571 92.3528 18.3989 91.4946 17.9567 90.6212L16.6377 88.0636L17.5223 85.4269C16.7324 85.38 16.8663 86.167 16.4795 86.4421C16.0055 85.7184 15.9584 85.6551 16.4319 84.3958C16.6848 83.7585 16.6769 82.9557 17.4276 82.4755L17.08 81.8224C16.1081 82.2004 16.4875 83.3258 15.7923 83.9082C15.6807 83.7759 15.605 83.6178 15.5716 83.4486C15.5383 83.2794 15.5489 83.1044 15.6029 82.9399C15.8632 82.2004 16.1637 81.484 16.3928 80.7444C16.4721 80.5441 16.4938 80.3264 16.4557 80.1145C16.3663 79.8025 16.2526 79.4973 16.1161 79.2016C15.8082 80.0834 15.5002 80.9648 15.1997 81.8461L14.9236 81.7755C14.2204 80.571 15.2077 79.6032 15.5003 78.5094C15.3659 78.2416 15.1447 78.2417 14.9786 78.4699C14.6627 78.9185 14.394 79.4066 14.0231 80.0439C13.5882 78.871 13.2332 77.7931 12.7909 76.6835C13.3914 75.9002 13.6908 74.9287 13.6358 73.9445C12.8459 73.6773 13.1306 74.5586 12.7115 74.7315C12.6369 73.9372 12.7618 73.1365 13.075 72.4022C13.7226 72.701 13.8252 73.3389 14.0152 73.8344C14.5786 75.4036 15.268 76.9244 16.0764 78.3835C16.1568 78.5911 16.2123 78.8078 16.2425 79.0287C16.8716 79.5995 17.3144 80.3454 17.5144 81.1693C17.7445 81.882 17.9344 82.6073 18.0831 83.3416L18.7466 85.9619C19.5365 88.1737 20.3263 90.3771 20.9898 92.62C21.1675 93.4877 21.2496 94.3717 21.2347 95.2567C21.2829 96.9561 21.5188 98.6451 21.9379 100.293C22.0246 100.6 22.2775 100.868 22.3246 101.175C22.4431 102.056 22.9648 102.953 22.8462 103.756C22.6325 105.228 22.7748 106.731 22.5696 108.211V108.235ZM27.538 94.5166C26.5031 95.7917 25.5318 97.1138 24.5445 98.4516C24.3155 98.7589 24.1255 99.1052 23.8097 99.6007C23.7806 99.3841 23.7806 99.1643 23.8097 98.9476C24.1753 97.517 24.8339 96.1771 25.745 95.0126C26.2788 94.3311 26.7645 93.6131 27.1983 92.8641C28.8791 90.5563 30.7107 88.3614 32.6804 86.2924C32.7693 86.1975 32.864 86.1079 32.9645 86.0252L33.1619 86.0879C33.1339 86.2935 33.0889 86.4959 33.0275 86.6941C32.617 87.5834 32.2376 88.4726 31.7641 89.3461C31.6149 89.6297 31.4319 89.8937 31.2186 90.133C29.9865 91.5969 28.7384 93.0217 27.538 94.4934V94.5166ZM31.8191 91.5421C31.2266 91.979 30.6039 92.3733 29.9552 92.7223L29.8129 92.5415C30.042 92.337 30.2473 92.1166 30.4843 91.9274C30.7213 91.7387 30.9345 91.715 31.0451 91.5421C32.6249 88.9449 34.9946 87.0246 37.0881 84.8919C38.0991 83.8687 39.244 82.9795 40.2476 81.98C41.2507 80.9806 42.2062 79.9574 43.1781 78.9422C43.6045 78.4936 44.0468 78.045 44.4415 77.5727C44.6071 77.325 44.7473 77.0614 44.8605 76.7857C44.9626 76.5006 45.1123 76.2349 45.3028 75.9987C46.0012 75.2776 46.5773 74.4485 47.009 73.5434C47.491 72.885 48.0185 72.262 48.5888 71.6779C49.0142 71.1782 49.3972 70.6437 49.7342 70.0807C49.8691 69.737 49.894 69.3601 49.8051 69.0022C51.0002 67.2606 52.1959 65.5264 53.3911 63.8L53.5572 63.9023C53.0673 64.8548 52.5774 65.8068 52.0801 66.7514L48.7861 73.0474C47.9973 74.4848 47.0513 75.8306 45.9662 77.0609C44.0309 79.3354 42.1115 81.61 40.1291 83.845C37.5431 86.5939 34.766 89.1579 31.8191 91.5183V91.5421ZM68.1546 77.2185C68.2043 77.0614 68.2678 76.9085 68.3439 76.762C68.8889 75.975 69.4576 75.1411 69.9788 74.2988C70.3184 73.7479 70.5792 73.1417 70.8792 72.5592L71.4876 71.4417C71.6199 71.2441 71.7416 71.039 71.8511 70.8282C73.3833 67.3734 75.2636 64.0757 76.4719 60.4791C76.7862 59.7227 77.1475 58.9869 77.5539 58.2752C78.3437 56.7012 79.031 55.1905 79.7976 53.6713C80.0902 53.0957 80.4653 52.5659 80.9113 52.0973L81.2192 52.2708C81.1404 52.499 81.0848 52.7272 80.9901 52.9397C80.3632 54.2459 79.7368 55.5574 79.1104 56.8747C78.7152 57.6617 78.2728 58.5114 77.9014 59.3537C77.4353 60.4001 77.0565 61.4865 76.5825 62.5017C75.9582 63.8791 75.2948 65.2327 74.6234 66.5785C73.7229 68.3886 72.7198 70.1593 71.8902 72.0005C71.0882 73.7579 70.0433 75.3952 68.7862 76.8643C68.7085 76.9607 68.6116 77.0398 68.5011 77.0967C68.391 77.1537 68.2704 77.1874 68.1466 77.1948L68.1546 77.2185ZM18.391 85.5687L18.7624 85.9387C18.7148 86.0568 18.6598 86.1749 18.5175 86.5054C18.399 86.08 18.3281 85.8597 18.2646 85.6314L18.391 85.5687Z" fill="#F1C40F"/>
</svg>
