<svg width="50" height="51" viewBox="0 0 50 51" fill="none" xmlns="http://www.w3.org/2000/svg">
<path d="M48.5915 21.3741C49.1741 21.2969 49.6094 20.8001 49.6094 20.2124V12.1222C49.6094 10.6683 48.4266 9.48547 46.9727 9.48547H3.02734C1.57344 9.48547 0.390625 10.6683 0.390625 12.1222V20.2124C0.390625 20.8001 0.825977 21.2969 1.4085 21.3741C3.46563 21.6468 5.01689 23.4205 5.01689 25.5C5.01689 27.5795 3.46563 29.3531 1.4085 29.6258C0.825977 29.7031 0.390625 30.1998 0.390625 30.7875V38.8778C0.390625 40.3317 1.57344 41.5145 3.02734 41.5145H46.9727C48.4266 41.5145 49.6094 40.3317 49.6094 38.8778V30.7875C49.6094 30.1998 49.174 29.7031 48.5915 29.6258C46.5344 29.3531 44.9831 27.5794 44.9831 25.5C44.9831 23.4206 46.5344 21.6468 48.5915 21.3741ZM47.2656 31.7298V38.8778C47.2656 39.0365 47.1314 39.1707 46.9727 39.1707H17.5595V36.8585C17.5595 36.2114 17.0348 35.6866 16.3876 35.6866C15.7404 35.6866 15.2157 36.2114 15.2157 36.8585V39.1707H3.02734C2.86855 39.1707 2.73438 39.0365 2.73438 38.8778V31.7298C5.43232 30.9151 7.36064 28.3973 7.36064 25.5C7.36064 22.6028 5.43232 20.0849 2.73438 19.2702V12.1223C2.73438 11.9635 2.86855 11.8293 3.02734 11.8293H15.2157V14.1416C15.2157 14.7888 15.7404 15.3135 16.3876 15.3135C17.0348 15.3135 17.5595 14.7888 17.5595 14.1416V11.8293H46.9727C47.1314 11.8293 47.2656 11.9635 47.2656 12.1223V19.2702C44.5677 20.085 42.6394 22.6028 42.6394 25.5C42.6394 28.3973 44.5677 30.9151 47.2656 31.7298ZM17.5595 19.3911V22.8752C17.5595 23.5224 17.0348 24.0471 16.3876 24.0471C15.7404 24.0471 15.2157 23.5224 15.2157 22.8752V19.3911C15.2157 18.744 15.7404 18.2193 16.3876 18.2193C17.0348 18.2193 17.5595 18.7439 17.5595 19.3911ZM17.5595 28.1248V31.6089C17.5595 32.2561 17.0348 32.7808 16.3876 32.7808C15.7404 32.7808 15.2157 32.2561 15.2157 31.6089V28.1248C15.2157 27.4777 15.7404 26.953 16.3876 26.953C17.0348 26.953 17.5595 27.4776 17.5595 28.1248ZM30.0396 21.063C30.0396 18.9681 28.3354 17.2638 26.2404 17.2638C24.1455 17.2638 22.4412 18.9681 22.4412 21.063C22.4412 23.1579 24.1455 24.8622 26.2404 24.8622C28.3354 24.8622 30.0396 23.1579 30.0396 21.063ZM24.785 21.063C24.785 20.2605 25.4379 19.6075 26.2404 19.6075C27.043 19.6075 27.6959 20.2605 27.6959 21.063C27.6959 21.8656 27.043 22.5185 26.2404 22.5185C25.4379 22.5185 24.785 21.8656 24.785 21.063ZM36.8094 19.5135L27.9416 32.6218C27.7151 32.9566 27.3458 33.1371 26.9699 33.1371C26.7439 33.1371 26.5156 33.0719 26.3144 32.9358C25.7783 32.5731 25.6377 31.8446 26.0004 31.3084L34.8682 18.2001C35.2309 17.6641 35.9594 17.5235 36.4955 17.8862C37.0314 18.2489 37.1721 18.9774 36.8094 19.5135ZM36.6107 26.1378C34.5158 26.1378 32.8115 27.8421 32.8115 29.937C32.8115 32.032 34.5158 33.7363 36.6107 33.7363C38.7057 33.7363 40.41 32.032 40.41 29.937C40.41 27.8421 38.7057 26.1378 36.6107 26.1378ZM36.6107 31.3925C35.8082 31.3925 35.1553 30.7396 35.1553 29.937C35.1553 29.1345 35.8082 28.4816 36.6107 28.4816C37.4133 28.4816 38.0662 29.1345 38.0662 29.937C38.0662 30.7396 37.4133 31.3925 36.6107 31.3925Z" fill="white"/>
</svg>
